<?xml version="1.0" encoding="UTF-8" standalone="yes"?>
<svg xmlns="http://www.w3.org/2000/svg" viewBox="0 0 50 50" width="50" height="50" fill="#ffffff">
  <path d="M 17.03125 4 C 6.539063 4 2 13.015625 2 17.617188 C 2 22.714844 4.847656 26.351563 7.6875 28.710938 L 6.945313 31.488281 L 9.757813 38 L 9.84375 38 L 13.378906 40.785156 L 14.621094 39.214844 L 13.078125 38 L 15 38 L 15 36 L 11.070313 36 L 9.054688 31.335938 L 9.414063 30.003906 C 11 31.078125 12.386719 31.738281 13 32 C 13.472656 32.726563 14.753906 34.367188 16.820313 34.851563 L 15.902344 37.53125 L 19.855469 44 L 19.953125 44 L 19.921875 44.050781 L 24.476563 46.851563 L 25.523438 45.148438 L 23.65625 44 L 26 44 L 26 42 L 20.972656 42 L 18.097656 37.292969 L 19.390625 33.527344 C 20.855469 31.273438 23.9375 30 28 30 C 31.1875 30 32.6875 26.484375 33.808594 23.917969 C 34.097656 23.25 34.484375 22.367188 34.734375 22.019531 C 35.101563 22.097656 35.546875 22.359375 36.046875 22.65625 C 36.882813 23.15625 37.898438 23.75 39.261719 23.9375 C 39.71875 24.570313 42.574219 28.527344 43.6875 30.484375 C 46.347656 35.167969 48.234375 39.09375 48.660156 39 C 49.050781 38.914063 48.339844 36.804688 45.488281 30.378906 C 43.710938 26.363281 42.902344 24.34375 42.425781 23.09375 C 43.804688 22.070313 45 20.253906 45 18 C 45 14.519531 41.792969 10 36.957031 10 C 35.292969 10 34.167969 10.375 33.265625 10.671875 C 32.765625 10.839844 32.359375 10.976563 31.996094 10.996094 C 31.726563 10.859375 31.089844 10.320313 30.570313 9.882813 C 28.132813 7.828125 23.59375 4 17.03125 4 Z M 39 17 C 39.550781 17 40 17.449219 40 18 C 40 18.550781 39.550781 19 39 19 C 38.449219 19 38 18.550781 38 18 C 38 17.449219 38.449219 17 39 17 Z"/>
</svg>