<?xml version="1.0" encoding="UTF-8"?>
<svg xmlns="http://www.w3.org/2000/svg" xmlns:xlink="http://www.w3.org/1999/xlink" width="50pt" height="50pt" viewBox="0 0 50 50" version="1.1">
<g id="surface1">
<path style=" stroke:none;fill-rule:nonzero;fill:rgb(100%,100%,100%);fill-opacity:1;" d="M 12.6875 0 C 10.394531 0 8.378906 0.867188 6.71875 2.5625 C 3.089844 6.265625 1.894531 13.269531 2 18.59375 C 2.085938 22.988281 3.832031 28.097656 3.90625 28.3125 C 4 28.578125 4.210938 28.765625 4.46875 28.875 C 4.59375 28.929688 4.710938 28.96875 4.84375 28.96875 C 4.984375 28.96875 5.148438 28.933594 5.28125 28.875 C 7.117188 28.039062 10.175781 27.277344 12.25 27.125 C 14.378906 26.976562 18.988281 27.929688 19.03125 27.9375 C 19.496094 28.035156 19.96875 27.78125 20.15625 27.34375 C 20.253906 27.117188 22.511719 21.761719 22.9375 16.03125 C 23.1875 12.6875 22.367188 6.410156 19 2.78125 C 17.296875 0.945312 15.171875 0 12.6875 0 Z M 37.3125 0 C 34.828125 0 32.734375 0.914062 31.03125 2.75 C 27.664062 6.378906 26.8125 12.6875 27.0625 16.03125 C 27.492188 21.761719 29.746094 27.117188 29.84375 27.34375 C 30.03125 27.78125 30.492188 28.035156 30.96875 27.9375 C 31.011719 27.929688 35.621094 26.976562 37.75 27.125 C 39.828125 27.28125 42.882812 28.039062 44.71875 28.875 C 44.851562 28.933594 45.015625 28.96875 45.15625 28.96875 C 45.289062 28.96875 45.40625 28.929688 45.53125 28.875 C 45.789062 28.761719 46 28.546875 46.09375 28.28125 C 46.167969 28.066406 47.914062 22.988281 48 18.59375 C 48.105469 13.269531 46.910156 6.261719 43.28125 2.5625 C 41.621094 0.867188 39.601562 0 37.3125 0 Z M 20.5 35.28125 C 20.371094 35.261719 20.226562 35.277344 20.09375 35.3125 L 19.71875 35.40625 C 18.828125 35.65625 16.769531 36.25 13.875 36.5 C 12.933594 36.582031 11.898438 36.625 10.8125 36.625 C 8.253906 36.625 6.207031 36.410156 6.1875 36.40625 C 5.90625 36.371094 5.621094 36.4375 5.40625 36.625 C 5.195312 36.8125 5.066406 37.089844 5.0625 37.375 C 5.039062 40.441406 5.578125 44.679688 8.28125 47.40625 C 9.996094 49.132812 12.308594 50 15.1875 50 C 17.101562 50 18.859375 49.109375 20.09375 47.5 C 22.132812 44.839844 22.5625 40.671875 21.3125 36.03125 C 21.207031 35.632812 20.882812 35.335938 20.5 35.28125 Z M 29.5 35.28125 C 29.117188 35.335938 28.792969 35.632812 28.6875 36.03125 C 27.4375 40.671875 27.867188 44.839844 29.90625 47.5 C 31.140625 49.109375 32.898438 50 34.8125 50 C 37.691406 50 40.003906 49.132812 41.71875 47.40625 C 44.421875 44.683594 44.960938 40.441406 44.9375 37.375 C 44.933594 37.089844 44.808594 36.8125 44.59375 36.625 C 44.378906 36.4375 44.097656 36.371094 43.8125 36.40625 C 43.792969 36.410156 41.753906 36.625 39.1875 36.625 C 38.101562 36.625 37.066406 36.582031 36.125 36.5 C 33.234375 36.25 31.171875 35.65625 30.28125 35.40625 L 29.90625 35.3125 C 29.773438 35.277344 29.628906 35.261719 29.5 35.28125 Z M 29.5 35.28125 "/>
</g>
</svg>
