<?xml version="1.0" encoding="UTF-8"?>
<svg xmlns="http://www.w3.org/2000/svg" xmlns:xlink="http://www.w3.org/1999/xlink" width="50pt" height="50pt" viewBox="0 0 50 50" version="1.1">
<g id="surface33">
<path style=" stroke:none;fill-rule:nonzero;fill:rgb(100%,100%,100%);fill-opacity:1;" d="M 12.6875 0 C 8.625 0 5.777344 2.820312 4.15625 6.4375 C 2.535156 10.054688 1.921875 14.566406 2 18.59375 C 2.089844 23.140625 3.90625 28.3125 3.90625 28.3125 C 4.003906 28.578125 4.207031 28.792969 4.46875 28.898438 C 4.730469 29.007812 5.027344 28.996094 5.28125 28.875 C 6.964844 28.109375 10.15625 27.28125 12.25 27.125 C 13.183594 27.054688 14.953125 27.242188 16.40625 27.46875 C 17.859375 27.695312 19.03125 27.9375 19.03125 27.9375 C 19.5 28.035156 19.972656 27.785156 20.15625 27.34375 C 20.15625 27.34375 22.5 21.886719 22.9375 16.03125 C 23.105469 13.777344 22.789062 9.957031 21.34375 6.53125 C 20.621094 4.816406 19.613281 3.214844 18.1875 2 C 16.761719 0.785156 14.910156 0 12.6875 0 Z M 37.3125 0 C 35.089844 0 33.238281 0.785156 31.8125 2 C 30.386719 3.214844 29.378906 4.816406 28.65625 6.53125 C 27.210938 9.957031 26.894531 13.777344 27.0625 16.03125 C 27.5 21.886719 29.84375 27.34375 29.84375 27.34375 C 30.027344 27.785156 30.5 28.035156 30.96875 27.9375 C 30.96875 27.9375 32.140625 27.695312 33.59375 27.46875 C 35.046875 27.242188 36.816406 27.054688 37.75 27.125 C 39.84375 27.28125 43.035156 28.109375 44.71875 28.875 C 44.972656 28.996094 45.269531 29.007812 45.53125 28.898438 C 45.792969 28.792969 45.996094 28.578125 46.09375 28.3125 C 46.09375 28.3125 47.910156 23.140625 48 18.59375 C 48.078125 14.566406 47.464844 10.054688 45.84375 6.4375 C 44.222656 2.820312 41.375 0 37.3125 0 Z M 12.6875 2 C 14.457031 2 15.765625 2.585938 16.875 3.53125 C 17.984375 4.476562 18.863281 5.800781 19.5 7.3125 C 20.773438 10.332031 21.109375 14.007812 20.96875 15.875 C 20.609375 20.671875 18.964844 24.816406 18.5625 25.8125 C 18.097656 25.71875 17.714844 25.660156 16.6875 25.5 C 15.179688 25.265625 13.425781 25.027344 12.09375 25.125 C 10.015625 25.277344 7.507812 25.9375 5.53125 26.6875 C 5.144531 25.464844 4.066406 21.921875 4 18.53125 C 3.925781 14.742188 4.527344 10.460938 5.96875 7.25 C 7.410156 4.039062 9.523438 2 12.6875 2 Z M 37.3125 2 C 40.476562 2 42.589844 4.039062 44.03125 7.25 C 45.472656 10.460938 46.074219 14.742188 46 18.53125 C 45.933594 21.921875 44.855469 25.464844 44.46875 26.6875 C 42.492188 25.9375 39.984375 25.277344 37.90625 25.125 C 36.574219 25.027344 34.820312 25.265625 33.3125 25.5 C 32.285156 25.660156 31.902344 25.71875 31.4375 25.8125 C 31.035156 24.816406 29.390625 20.671875 29.03125 15.875 C 28.890625 14.007812 29.226562 10.332031 30.5 7.3125 C 31.136719 5.800781 32.015625 4.476562 33.125 3.53125 C 34.234375 2.585938 35.542969 2 37.3125 2 Z M 20.34375 35.25 C 20.28125 35.253906 20.21875 35.265625 20.15625 35.28125 C 20.136719 35.289062 20.113281 35.300781 20.09375 35.3125 C 19.285156 35.519531 17.226562 36.210938 13.875 36.5 C 10.078125 36.832031 6.1875 36.375 6.1875 36.375 C 5.902344 36.339844 5.613281 36.429688 5.398438 36.621094 C 5.183594 36.8125 5.058594 37.085938 5.0625 37.375 C 5.039062 40.265625 5.5 43.351562 7.03125 45.8125 C 8.5625 48.273438 11.253906 50 15.1875 50 C 17.734375 50 19.933594 48.359375 21.0625 45.84375 C 22.191406 43.328125 22.367188 39.921875 21.3125 36 C 21.199219 35.558594 20.800781 35.25 20.34375 35.25 Z M 29.5 35.28125 C 29.113281 35.339844 28.792969 35.621094 28.6875 36 C 27.632812 39.921875 27.808594 43.328125 28.9375 45.84375 C 30.066406 48.359375 32.265625 50 34.8125 50 C 38.746094 50 41.4375 48.273438 42.96875 45.8125 C 44.5 43.351562 44.960938 40.265625 44.9375 37.375 C 44.941406 37.085938 44.816406 36.8125 44.601562 36.621094 C 44.386719 36.429688 44.097656 36.339844 43.8125 36.375 C 43.8125 36.375 39.921875 36.832031 36.125 36.5 C 32.773438 36.210938 30.714844 35.519531 29.90625 35.3125 C 29.773438 35.273438 29.636719 35.265625 29.5 35.28125 Z M 19.53125 37.53125 C 20.175781 40.621094 20.011719 43.261719 19.21875 45.03125 C 18.335938 47.003906 16.921875 48 15.1875 48 C 11.808594 48 9.941406 46.710938 8.71875 44.75 C 7.664062 43.054688 7.253906 40.773438 7.15625 38.46875 C 8.453125 38.582031 10.945312 38.769531 14.03125 38.5 C 16.703125 38.269531 18.445312 37.828125 19.53125 37.53125 Z M 30.46875 37.53125 C 31.554688 37.828125 33.296875 38.269531 35.96875 38.5 C 39.054688 38.769531 41.546875 38.582031 42.84375 38.46875 C 42.746094 40.773438 42.335938 43.054688 41.28125 44.75 C 40.058594 46.710938 38.191406 48 34.8125 48 C 33.078125 48 31.664062 47.003906 30.78125 45.03125 C 29.988281 43.261719 29.824219 40.621094 30.46875 37.53125 Z M 30.46875 37.53125 "/>
</g>
</svg>
