<?xml version="1.0" encoding="UTF-8"?>
<svg xmlns="http://www.w3.org/2000/svg" xmlns:xlink="http://www.w3.org/1999/xlink" width="50pt" height="50pt" viewBox="0 0 50 50" version="1.1">
<g id="surface2202795">
<path style=" stroke:none;fill-rule:nonzero;fill:rgb(100%,100%,100%);fill-opacity:1;" d="M 9 4 C 6.25 4 4 6.25 4 9 L 4 41 C 4 43.75 6.25 46 9 46 L 41 46 C 43.75 46 46 43.75 46 41 L 46 9 C 46 6.25 43.75 4 41 4 Z M 9 6 L 25.609375 6 L 15.519531 16.226562 C 15.277344 16.472656 15.179688 16.828125 15.261719 17.164062 C 15.34375 17.5 15.59375 17.769531 15.921875 17.878906 L 27.859375 21.796875 L 21.585938 27.980469 L 19.660156 24.585938 C 19.453125 24.226562 19.050781 24.03125 18.640625 24.09375 C 18.230469 24.15625 17.902344 24.464844 17.8125 24.867188 L 15.023438 37.789062 C 14.953125 38.121094 15.054688 38.464844 15.292969 38.703125 C 15.53125 38.945312 15.875 39.046875 16.203125 38.976562 L 29.320312 36.226562 C 29.730469 36.144531 30.042969 35.8125 30.105469 35.398438 C 30.167969 34.984375 29.964844 34.574219 29.597656 34.371094 L 26.171875 32.488281 L 38.699219 20.152344 C 38.949219 19.90625 39.050781 19.550781 38.972656 19.210938 C 38.890625 18.871094 38.640625 18.597656 38.308594 18.488281 L 26.574219 14.632812 L 35.40625 6 L 41 6 C 42.667969 6 44 7.332031 44 9 L 44 41 C 44 42.667969 42.667969 44 41 44 L 9 44 C 7.332031 44 6 42.667969 6 41 L 6 9 C 6 7.332031 7.332031 6 9 6 Z M 28.417969 6 L 32.546875 6 L 24 14.355469 C 23.75 14.601562 23.648438 14.957031 23.726562 15.296875 C 23.804688 15.636719 24.054688 15.914062 24.386719 16.019531 L 36.125 19.875 L 23.8125 32.003906 C 23.589844 32.226562 23.480469 32.542969 23.523438 32.855469 C 23.570312 33.167969 23.757812 33.445312 24.035156 33.59375 L 26.269531 34.824219 L 17.300781 36.703125 L 19.214844 27.851562 L 20.488281 30.101562 C 20.644531 30.371094 20.914062 30.554688 21.222656 30.597656 C 21.53125 30.640625 21.839844 30.539062 22.0625 30.320312 L 30.433594 22.074219 C 30.679688 21.828125 30.785156 21.472656 30.703125 21.132812 C 30.625 20.792969 30.375 20.519531 30.042969 20.410156 L 18.078125 16.480469 Z M 28.417969 6 "/>
</g>
</svg>
