<?xml version="1.0" encoding="UTF-8"?>
<svg xmlns="http://www.w3.org/2000/svg" xmlns:xlink="http://www.w3.org/1999/xlink" width="100pt" height="100pt" viewBox="0 0 100 100" version="1.1">
<g id="surface5189191">
<path style=" stroke:none;fill-rule:nonzero;fill:rgb(100%,100%,100%);fill-opacity:1;" d="M 50 -0.0625 C 37.875 -0.0625 27.9375 9.546875 27.9375 21.4375 L 27.9375 46.5625 C 27.9375 58.453125 37.875 68.0625 50 68.0625 C 62.125 68.0625 72.0625 58.453125 72.0625 46.5625 L 72.0625 21.4375 C 72.0625 9.546875 62.125 -0.0625 50 -0.0625 Z M 50 4.0625 C 59.96875 4.0625 67.9375 11.828125 67.9375 21.4375 L 67.9375 22 L 57 22 C 56.9375 22 56.875 22 56.8125 22 C 55.710938 22.054688 54.851562 22.992188 54.90625 24.09375 C 54.960938 25.195312 55.898438 26.054688 57 26 L 67.9375 26 L 67.9375 30 L 57 30 C 56.9375 30 56.875 30 56.8125 30 C 55.710938 30.054688 54.851562 30.992188 54.90625 32.09375 C 54.960938 33.195312 55.898438 34.054688 57 34 L 67.9375 34 L 67.9375 38 L 57 38 C 56.9375 38 56.875 38 56.8125 38 C 55.710938 38.054688 54.851562 38.992188 54.90625 40.09375 C 54.960938 41.195312 55.898438 42.054688 57 42 L 67.9375 42 L 67.9375 46.5625 C 67.9375 56.171875 59.96875 63.9375 50 63.9375 C 40.03125 63.9375 32.0625 56.171875 32.0625 46.5625 L 32.0625 42 L 43 42 C 43.71875 42.007812 44.390625 41.632812 44.757812 41.007812 C 45.117188 40.382812 45.117188 39.617188 44.757812 38.992188 C 44.390625 38.367188 43.71875 37.992188 43 38 L 32.0625 38 L 32.0625 34 L 43 34 C 43.71875 34.007812 44.390625 33.632812 44.757812 33.007812 C 45.117188 32.382812 45.117188 31.617188 44.757812 30.992188 C 44.390625 30.367188 43.71875 29.992188 43 30 L 32.0625 30 L 32.0625 26 L 43 26 C 43.71875 26.007812 44.390625 25.632812 44.757812 25.007812 C 45.117188 24.382812 45.117188 23.617188 44.757812 22.992188 C 44.390625 22.367188 43.71875 21.992188 43 22 L 32.0625 22 L 32.0625 21.4375 C 32.0625 11.828125 40.03125 4.0625 50 4.0625 Z M 19.625 34.25 C 18.804688 34.421875 18.226562 35.164062 18.25 36 L 18.25 46 C 18.25 61.40625 29.34375 74.335938 43.9375 77.1875 L 43.9375 90 L 30.9375 90 C 27.132812 90 24 93.140625 24 96.9375 L 24 99.875 L 75.75 99.875 L 75.75 96.9375 C 75.75 93.140625 72.617188 90 68.8125 90 L 56.0625 90 L 56.0625 77.1875 C 70.65625 74.335938 81.75 61.40625 81.75 46 L 81.75 36 C 81.75 35.03125 80.96875 34.25 80 34.25 C 79.03125 34.25 78.25 35.03125 78.25 36 L 78.25 46 C 78.25 61.601562 65.601562 74.25 50 74.25 C 34.398438 74.25 21.75 61.601562 21.75 46 L 21.75 36 C 21.757812 35.5 21.546875 35.023438 21.179688 34.6875 C 20.804688 34.351562 20.3125 34.1875 19.8125 34.25 C 19.75 34.25 19.6875 34.25 19.625 34.25 Z M 48.0625 77.625 C 48.703125 77.664062 49.351562 77.75 50 77.75 C 50.648438 77.75 51.296875 77.664062 51.9375 77.625 L 51.9375 89.9375 L 48.0625 89.9375 Z M 30.9375 94 L 45.5 94 C 45.664062 94.039062 45.828125 94.0625 46 94.0625 L 54 94.0625 C 54.148438 94.054688 54.296875 94.039062 54.4375 94 L 68.8125 94 C 70.09375 94 70.945312 94.84375 71.375 95.9375 L 28.375 95.9375 C 28.804688 94.84375 29.648438 94 30.9375 94 Z M 30.9375 94 "/>
</g>
</svg>
