<?xml version="1.0" encoding="UTF-8" standalone="yes"?>
<svg xmlns="http://www.w3.org/2000/svg" viewBox="0 0 50 50" width="50" height="50" fill="#ffffff">
  <path d="M 17.03125 5 C 11.890625 5 8.078125 7.210938 5.625 10 C 3.167969 12.785156 2 16.089844 2 18.617188 C 2 23.796875 4.875 27.398438 7.6875 29.699219 L 6.945313 32.488281 L 9.757813 39 L 9.84375 39 L 13.378906 41.785156 L 14.621094 40.214844 L 13.078125 39 L 15 39 L 15 37 L 11.070313 37 L 9.054688 32.335938 L 9.417969 30.980469 C 11.21875 32.167969 12.71875 32.792969 13 32.902344 C 13.269531 33.371094 14.457031 35.34375 16.8125 35.871094 L 15.902344 38.53125 L 19.855469 45 L 19.953125 45 L 19.921875 45.050781 L 24.476563 47.851563 L 25.523438 46.148438 L 23.65625 45 L 26 45 L 26 43 L 20.972656 43 L 18.097656 38.292969 L 19.390625 34.527344 C 20.765625 32.421875 23.683594 31 28 31 C 29.339844 31 30.449219 30.304688 31.257813 29.425781 C 32.066406 28.546875 32.652344 27.46875 33.140625 26.425781 C 33.632813 25.386719 34.03125 24.375 34.367188 23.6875 C 34.507813 23.398438 34.621094 23.21875 34.710938 23.085938 C 35.082031 23.144531 35.582031 23.394531 36.394531 23.863281 C 37.128906 24.289063 38.074219 24.765625 39.257813 24.933594 C 39.714844 25.566406 42.574219 29.527344 43.6875 31.484375 C 46.347656 36.167969 48.234375 40.09375 48.660156 40 C 49.050781 39.914063 48.339844 37.804688 45.488281 31.378906 C 43.714844 27.371094 42.90625 25.347656 42.429688 24.097656 C 42.726563 23.867188 43.015625 23.613281 43.292969 23.3125 C 44.238281 22.285156 45 20.792969 45 19 C 45 17.273438 44.164063 15.375 42.777344 13.808594 C 41.386719 12.238281 39.367188 11 36.957031 11 C 35.539063 11 34.464844 11.285156 33.652344 11.546875 C 32.910156 11.785156 32.417969 11.957031 32.023438 11.988281 C 31.988281 11.972656 31.90625 11.945313 31.800781 11.875 C 31.582031 11.722656 31.257813 11.464844 30.875 11.140625 C 30.101563 10.492188 29.066406 9.59375 27.78125 8.683594 C 25.214844 6.867188 21.613281 5 17.03125 5 Z M 17.03125 7 C 21.074219 7 24.246094 8.632813 26.625 10.316406 C 27.816406 11.15625 28.792969 12.007813 29.589844 12.671875 C 29.984375 13.003906 30.332031 13.292969 30.667969 13.523438 C 31.003906 13.753906 31.292969 14 31.902344 14 C 32.8125 14 33.523438 13.6875 34.265625 13.453125 C 35.003906 13.214844 35.796875 13 36.957031 13 C 38.679688 13 40.175781 13.886719 41.277344 15.128906 C 42.378906 16.375 43 17.976563 43 19 C 43 20.230469 42.484375 21.242188 41.824219 21.957031 C 41.160156 22.671875 40.285156 23 40.121094 23 C 39.011719 23 38.222656 22.609375 37.398438 22.136719 C 36.574219 21.660156 35.734375 21 34.527344 21 C 33.882813 21 33.476563 21.394531 33.214844 21.71875 C 32.953125 22.046875 32.761719 22.410156 32.566406 22.8125 C 32.171875 23.625 31.789063 24.613281 31.332031 25.574219 C 30.878906 26.53125 30.355469 27.453125 29.785156 28.074219 C 29.214844 28.695313 28.679688 29 28 29 C 23.09375 29 19.421875 30.800781 17.65625 33.746094 L 17.554688 33.710938 L 17.5 33.871094 C 15.695313 33.523438 14.5 31.613281 14.5 31.613281 L 14.328125 31.292969 L 13.984375 31.15625 C 13.984375 31.15625 4 27.253906 4 18.617188 C 4 16.746094 4.992188 13.742188 7.125 11.320313 C 9.253906 8.898438 12.457031 7 17.03125 7 Z M 39 18 C 38.449219 18 38 18.449219 38 19 C 38 19.550781 38.449219 20 39 20 C 39.550781 20 40 19.550781 40 19 C 40 18.449219 39.550781 18 39 18 Z"/>
</svg>