<?xml version="1.0" encoding="UTF-8" standalone="yes"?>
<svg xmlns="http://www.w3.org/2000/svg" viewBox="0 0 50 50" width="50" height="50" fill="#ffffff">
  <path d="M 22.800781 3 C 16.347265 3 11.572492 5.1974133 8.4824219 8.6542969 C 5.3923515 12.11118 4 16.750597 4 21.550781 C 4 25.585307 6.0645017 29.170899 8.0644531 32.039062 C 9.9156897 34.693951 11 37.835542 11 41.033203 L 11 47 L 13 47 L 13 41.033203 C 13 37.384865 11.769842 33.855642 9.7050781 30.894531 C 7.7890296 28.146694 6 24.888255 6 21.550781 C 6 17.136966 7.2774767 13.001445 9.9726562 9.9863281 C 12.667836 6.9712117 16.793297 5 22.800781 5 C 28.196721 5 31.951902 6.6172229 34.53125 9.1523438 C 37.110598 11.687465 38.538458 15.206574 39.007812 19.119141 L 39.033203 19.34375 L 43.914062 27.044922 C 44.102612 27.381596 44.022398 27.682383 43.681641 27.869141 L 43.679688 27.871094 L 40 29.914062 L 40 34.566406 C 40 37.702954 36.918954 40.27527 33.662109 39.976562 L 33.650391 39.974609 L 30 39.724609 L 30 47 L 32 47 L 32 41.865234 L 33.488281 41.96875 C 37.882444 42.367205 42 38.97319 42 34.566406 L 42 31.089844 L 44.644531 29.623047 C 45.905026 28.932214 46.358052 27.304928 45.658203 26.0625 L 45.644531 26.039062 L 40.910156 18.568359 C 40.360085 14.443061 38.83273 10.575988 35.933594 7.7265625 C 32.957942 4.8019333 28.603841 3 22.800781 3 z M 22.216797 9 C 21.184813 9 20.488523 9.4076015 19.925781 9.8261719 C 19.462839 9.5937278 18.892518 9.3828125 18.107422 9.3828125 C 16.823431 9.3828125 15.891696 10.119267 15.216797 10.998047 C 15.216797 10.998047 15.214844 10.998047 15.214844 10.998047 C 13.030109 10.903007 11.281083 12.639265 11.107422 14.757812 C 10.461123 15.294286 10 16.027818 10 16.904297 C 10 17.591272 10.259256 18.197195 10.646484 18.724609 C 10.278328 19.197731 10 19.749155 10 20.425781 C 10 21.158956 10.354378 21.984196 11 22.615234 L 11 23 C 11 23.995493 11.318419 24.991493 12.007812 25.755859 C 12.697208 26.520225 13.760833 27 15 27 L 15 47 L 17 47 L 17 26 A 1.0001 1.0001 0 0 0 16 25 L 15 25 C 14.239167 25 13.802792 24.762353 13.492188 24.417969 C 13.181582 24.073585 13 23.569507 13 23 L 13 22.283203 A 1.0001 1.0001 0 0 0 12.400391 21.367188 C 12.152077 21.258698 12 20.899584 12 20.425781 C 12 20.070058 12.179077 19.82044 12.568359 19.580078 A 1.0001 1.0001 0 0 0 12.5 17.839844 C 12.375332 17.775922 12 17.186405 12 16.904297 C 12 16.55907 12.225965 16.227625 12.46875 16.113281 A 1.0001 1.0001 0 0 0 13.041016 15.15625 C 13.040053 15.13731 13.042969 15.171465 13.042969 15.078125 C 13.042969 13.890775 13.973898 12.946481 15.126953 12.996094 C 15.338373 13.005894 15.504787 12.996559 15.617188 12.998047 A 1.0001 1.0001 0 0 0 16.5 12.490234 C 16.933636 11.722287 17.316339 11.382813 18.107422 11.382812 C 18.71228 11.382812 19.289502 11.717023 19.398438 11.798828 A 1.0001 1.0001 0 0 0 20.664062 11.748047 C 21.257605 11.220229 21.396402 11 22.216797 11 C 22.758843 11 24.017532 11.346161 24.378906 11.707031 A 1.0001 1.0001 0 0 0 25.589844 11.863281 C 26.277716 11.461803 26.566396 11.382812 27.302734 11.382812 C 28.361738 11.382812 28.924043 11.810974 29.310547 12.738281 A 1.0001 1.0001 0 0 0 30.234375 13.353516 C 30.613993 13.353516 31.112926 13.55994 31.482422 13.90625 C 31.851917 14.25256 32.060547 14.695165 32.060547 15.0625 A 1.0001 1.0001 0 0 0 32.849609 16.039062 C 32.946479 16.060032 33.293973 16.259268 33.554688 16.628906 C 33.815402 16.998545 34 17.497675 34 18 C 34 18.650382 33.809209 19.13024 33.523438 19.443359 C 33.237665 19.756479 32.845442 19.953125 32.201172 19.953125 L 32.044922 19.953125 A 1.0001 1.0001 0 0 0 31.105469 20.611328 C 30.976138 20.965599 30.769322 21.3435 30.511719 21.59375 C 30.254116 21.844 29.983841 22 29.470703 22 L 26 22 A 1.0001 1.0001 0 0 0 25 23 C 25 24.253333 24.610136 24.862335 24.023438 25.375 C 23.436739 25.887665 22.582976 26.236575 21.742188 26.568359 C 20.062013 27.231552 19 28.877768 19 30.658203 L 19 47 L 21 47 L 21 30.658203 C 21 29.670639 21.582738 28.782495 22.476562 28.429688 C 23.305774 28.102472 24.399042 27.702945 25.339844 26.880859 C 26.07498 26.238487 26.563693 25.214179 26.791016 24 L 29.470703 24 C 30.486566 24 31.340603 23.578797 31.90625 23.029297 C 32.2844 22.661941 32.432978 22.263228 32.626953 21.871094 C 33.56288 21.772943 34.418455 21.428213 35 20.791016 C 35.672978 20.053635 36 19.055618 36 18 C 36 17.031325 35.670738 16.158924 35.189453 15.476562 C 34.847137 14.991231 34.401245 14.636713 33.898438 14.376953 C 33.727638 13.629955 33.383367 12.947531 32.849609 12.447266 C 32.277517 11.911072 31.540373 11.587083 30.748047 11.462891 C 30.014611 10.263131 28.826587 9.3828125 27.302734 9.3828125 C 26.547684 9.3828125 25.890213 9.6641507 25.21875 9.9609375 C 24.225064 9.2725291 23.078319 9 22.216797 9 z"/>
</svg>