<?xml version="1.0" encoding="UTF-8" standalone="yes"?>
<svg xmlns="http://www.w3.org/2000/svg" viewBox="0 0 50 50" width="50" height="50" fill="#ffffff">
  <path d="M 9 4 C 6.2504839 4 4 6.2504839 4 9 L 4 41 C 4 43.749516 6.2504839 46 9 46 L 41 46 C 43.749516 46 46 43.749516 46 41 L 46 9 C 46 6.2504839 43.749516 4 41 4 L 9 4 z M 9 6 L 25.609375 6 L 15.521484 16.226562 A 1.0001 1.0001 0 0 0 15.921875 17.878906 L 27.859375 21.798828 L 21.587891 27.980469 L 19.660156 24.585938 A 1.0001 1.0001 0 0 0 17.814453 24.869141 L 15.023438 37.789062 A 1.0001 1.0001 0 0 0 16.205078 38.978516 L 29.320312 36.228516 A 1.0001 1.0001 0 0 0 29.597656 34.373047 L 26.173828 32.490234 L 38.699219 20.152344 A 1.0001 1.0001 0 0 0 38.308594 18.488281 L 26.576172 14.634766 L 35.408203 6 L 41 6 C 42.668484 6 44 7.3315161 44 9 L 44 41 C 44 42.668484 42.668484 44 41 44 L 9 44 C 7.3315161 44 6 42.668484 6 41 L 6 9 C 6 7.3315161 7.3315161 6 9 6 z M 28.417969 6 L 32.546875 6 L 24 14.357422 A 1.0001 1.0001 0 0 0 24.386719 16.021484 L 36.126953 19.876953 L 23.814453 32.005859 A 1.0001 1.0001 0 0 0 24.035156 33.595703 L 26.269531 34.826172 L 17.302734 36.705078 L 19.214844 27.851562 L 20.490234 30.101562 A 1.0001 1.0001 0 0 0 22.0625 30.320312 L 30.431641 22.074219 A 1.0001 1.0001 0 0 0 30.041016 20.410156 L 18.078125 16.482422 L 28.417969 6 z"/>
</svg>