<?xml version="1.0" encoding="UTF-8"?>
<svg xmlns="http://www.w3.org/2000/svg" xmlns:xlink="http://www.w3.org/1999/xlink" width="480pt" height="480pt" viewBox="0 0 480 480" version="1.1">
<g id="surface53299775">
<path style=" stroke:none;fill-rule:nonzero;fill:rgb(97.647059%,53.333336%,60.392159%);fill-opacity:1;" d="M 321.628906 63.691406 C 315.230469 60.488281 310 63.71875 310 70.878906 L 310 355.378906 L 426.738281 413.75 C 439.589844 420.171875 450 415.671875 450 403.699219 L 450 129.738281 C 450 128.589844 449.351562 127.539062 448.328125 127.03125 Z M 321.628906 63.691406 "/>
<path style=" stroke:none;fill-rule:nonzero;fill:rgb(98.039216%,22.352941%,33.725491%);fill-opacity:1;" d="M 170 285.371094 L 303.191406 68.949219 C 306.941406 62.859375 315.238281 60.488281 321.628906 63.691406 L 448.46875 127.109375 C 449.289062 127.519531 449.578125 128.550781 449.101562 129.328125 L 310 355.371094 Z M 170 285.371094 "/>
<path style=" stroke:none;fill-rule:nonzero;fill:rgb(55.29412%,0%,11.764706%);fill-opacity:1;" d="M 49.378906 67.558594 C 38.71875 62.230469 35.109375 66.179688 41.359375 76.328125 L 170 285.371094 L 310 355.371094 L 170.300781 128.359375 C 170.101562 128.039062 169.820312 127.78125 169.480469 127.609375 Z M 49.378906 67.558594 "/>
<path style=" stroke:none;fill-rule:nonzero;fill:rgb(100%,0%,21.960784%);fill-opacity:1;" d="M 170 403.699219 C 170 415.621094 161.28125 421.011719 150.621094 415.679688 L 41.628906 361.191406 C 35.230469 357.988281 30 349.519531 30 342.371094 L 30 75.210938 C 30 65.671875 36.980469 61.359375 45.511719 65.628906 L 169.25 127.5 C 169.710938 127.730469 170 128.199219 170 128.710938 Z M 170 403.699219 "/>
</g>
</svg>
