<?xml version="1.0" encoding="UTF-8"?>
<svg xmlns="http://www.w3.org/2000/svg" xmlns:xlink="http://www.w3.org/1999/xlink" width="96pt" height="96pt" viewBox="0 0 96 96" version="1.1">
<g id="surface53299739">
<path style=" stroke:none;fill-rule:nonzero;fill:rgb(97.647059%,53.333336%,60.392159%);fill-opacity:1;" d="M 64.324219 12.738281 C 63.046875 12.097656 62 12.742188 62 14.175781 L 62 71.074219 L 85.347656 82.75 C 87.917969 84.035156 90 83.132812 90 80.738281 L 90 25.949219 C 90 25.71875 89.871094 25.507812 89.664062 25.40625 Z M 64.324219 12.738281 "/>
<path style=" stroke:none;fill-rule:nonzero;fill:rgb(98.039216%,22.352941%,33.725491%);fill-opacity:1;" d="M 34 57.074219 L 60.636719 13.789062 C 61.386719 12.570312 63.046875 12.097656 64.324219 12.738281 L 89.695312 25.421875 C 89.859375 25.503906 89.914062 25.710938 89.820312 25.867188 L 62 71.074219 Z M 34 57.074219 "/>
<path style=" stroke:none;fill-rule:nonzero;fill:rgb(55.29412%,0%,11.764706%);fill-opacity:1;" d="M 9.875 13.511719 C 7.742188 12.445312 7.023438 13.234375 8.273438 15.265625 L 34 57.074219 L 62 71.074219 L 34.058594 25.671875 C 34.019531 25.609375 33.964844 25.554688 33.894531 25.523438 Z M 9.875 13.511719 "/>
<path style=" stroke:none;fill-rule:nonzero;fill:rgb(100%,0%,21.960784%);fill-opacity:1;" d="M 34 80.738281 C 34 83.125 32.257812 84.203125 30.125 83.136719 L 8.324219 72.238281 C 7.046875 71.597656 6 69.902344 6 68.472656 L 6 15.042969 C 6 13.132812 7.394531 12.273438 9.101562 13.125 L 33.851562 25.5 C 33.941406 25.546875 34 25.640625 34 25.742188 Z M 34 80.738281 "/>
</g>
</svg>
