<?xml version="1.0" encoding="UTF-8"?>
<svg xmlns="http://www.w3.org/2000/svg" xmlns:xlink="http://www.w3.org/1999/xlink" width="52pt" height="52pt" viewBox="0 0 52 52" version="1.1">
<g id="surface5189039">
<path style=" stroke:none;fill-rule:nonzero;fill:rgb(100%,100%,100%);fill-opacity:1;" d="M 47.1875 0 C 46.671875 0 46.140625 0.171875 45.75 0.5625 L 44.9375 1.4375 L 44.5625 1.125 C 44.15625 0.71875 43.53125 0.71875 43.125 1.125 C 42.71875 1.539062 42.71875 2.148438 43.125 2.5625 L 43.4375 2.9375 L 42.9375 3.4375 L 42.5625 3.125 C 42.15625 2.71875 41.53125 2.71875 41.125 3.125 C 40.71875 3.539062 40.71875 4.148438 41.125 4.5625 L 41.4375 4.9375 L 41.0625 5.3125 C 40.546875 5.828125 40.390625 6.523438 40.5625 7.1875 L 31.8125 15.9375 C 30.007812 14.359375 27.273438 12.5 24.3125 12.5 C 23 12.5 21.648438 12.898438 20.3125 13.8125 C 17.351562 15.835938 17.914062 18.90625 16.0625 20.6875 C 13.984375 22.6875 8.296875 21.078125 3.0625 26.3125 C -2.171875 31.546875 0.148438 38.78125 6.8125 45.1875 C 10.804688 49.34375 15.109375 51.8125 19.0625 51.8125 C 21.445312 51.8125 23.71875 50.90625 25.6875 48.9375 C 30.921875 43.703125 29.3125 38.023438 31.3125 35.9375 C 33.09375 34.085938 36.21875 34.71875 38.25 31.75 C 41.226562 27.40625 38.351562 22.804688 36.0625 20.1875 L 44.8125 11.4375 C 45.46875 11.609375 46.171875 11.453125 46.6875 10.9375 L 47.0625 10.5625 L 47.4375 10.875 C 47.640625 11.078125 47.851562 11.1875 48.125 11.1875 C 48.398438 11.1875 48.671875 11.078125 48.875 10.875 C 49.28125 10.460938 49.28125 9.851562 48.875 9.4375 L 48.5625 9.0625 L 49.0625 8.5625 L 49.4375 8.875 C 49.640625 9.078125 49.851562 9.1875 50.125 9.1875 C 50.398438 9.1875 50.671875 9.078125 50.875 8.875 C 51.28125 8.460938 51.28125 7.851562 50.875 7.4375 L 50.5625 7.0625 L 51.4375 6.25 C 52.21875 5.46875 52.21875 4.21875 51.4375 3.4375 L 48.5625 0.5625 C 48.171875 0.171875 47.703125 0 47.1875 0 Z M 47.0625 2.375 C 47.21875 2.375 47.382812 2.382812 47.5 2.5 C 47.734375 2.734375 47.734375 3.140625 47.5 3.375 L 43.5 7.375 C 43.382812 7.492188 43.21875 7.5625 43.0625 7.5625 C 42.90625 7.5625 42.742188 7.492188 42.625 7.375 C 42.390625 7.140625 42.390625 6.734375 42.625 6.5 L 46.625 2.5 C 46.742188 2.382812 46.90625 2.375 47.0625 2.375 Z M 49.0625 4.375 C 49.21875 4.375 49.382812 4.382812 49.5 4.5 C 49.734375 4.734375 49.734375 5.140625 49.5 5.375 L 45.5 9.375 C 45.382812 9.492188 45.21875 9.5625 45.0625 9.5625 C 44.90625 9.5625 44.742188 9.492188 44.625 9.375 C 44.390625 9.140625 44.390625 8.734375 44.625 8.5 L 48.625 4.5 C 48.742188 4.382812 48.90625 4.375 49.0625 4.375 Z M 24.3125 15.3125 C 26.234375 15.3125 28.257812 16.617188 29.8125 17.9375 L 23.125 24.625 C 22.976562 24.609375 22.84375 24.5625 22.6875 24.5625 C 20.078125 24.5625 17.9375 26.703125 17.9375 29.3125 C 17.9375 31.921875 20.078125 34.0625 22.6875 34.0625 C 25.296875 34.0625 27.4375 31.921875 27.4375 29.3125 C 27.4375 29.15625 27.390625 29.023438 27.375 28.875 L 34.125 22.125 C 35.859375 24.140625 37.820312 27.375 35.9375 30.125 C 35.328125 31.015625 34.554688 31.34375 33.1875 31.8125 C 31.984375 32.21875 30.476562 32.71875 29.25 34 C 27.898438 35.398438 27.601562 37.242188 27.25 39.1875 C 26.804688 41.625 26.304688 44.382812 23.6875 47 C 22.3125 48.375 20.796875 49.0625 19.0625 49.0625 C 16.03125 49.0625 12.390625 46.96875 8.8125 43.25 C 8.789062 43.21875 8.78125 43.210938 8.75 43.1875 C 5.0625 39.640625 2.96875 36.023438 2.9375 33 C 2.921875 31.234375 3.609375 29.710938 5 28.3125 C 7.617188 25.6875 10.375 25.195312 12.8125 24.75 C 14.757812 24.398438 16.601562 24.039062 18 22.6875 C 19.265625 21.46875 19.765625 20 20.1875 18.8125 C 20.664062 17.445312 20.96875 16.742188 21.875 16.125 C 22.65625 15.59375 23.453125 15.3125 24.3125 15.3125 Z M 11.125 32.5625 C 10.96875 32.5625 10.804688 32.632812 10.6875 32.75 L 9.4375 34 C 9.203125 34.234375 9.203125 34.640625 9.4375 34.875 L 17.125 42.5625 C 17.359375 42.796875 17.765625 42.796875 18 42.5625 L 19.25 41.3125 C 19.484375 41.078125 19.484375 40.671875 19.25 40.4375 L 11.5625 32.75 C 11.445312 32.632812 11.28125 32.5625 11.125 32.5625 Z M 11.125 32.5625 "/>
</g>
</svg>
