<?xml version="1.0" encoding="UTF-8"?>
<svg xmlns="http://www.w3.org/2000/svg" xmlns:xlink="http://www.w3.org/1999/xlink" width="96pt" height="96pt" viewBox="0 0 96 96" version="1.1">
<g id="surface4762931">
<path style=" stroke:none;fill-rule:nonzero;fill:rgb(100%,100%,100%);fill-opacity:1;" d="M 34 0 C 28.484375 0 24 4.484375 24 10 C 24 15.515625 28.484375 20 34 20 C 39.515625 20 44 15.515625 44 10 C 44 4.484375 39.515625 0 34 0 Z M 47.5 20 C 47.421875 20.03125 47.328125 20.078125 47.25 20.125 L 28 24 L 27.25 24.125 C 25.90625 24.359375 24.78125 25.25 24.25 26.5 L 17.5 43.25 L 5 40.125 C 2.859375 39.578125 0.671875 40.859375 0.125 43 C -0.421875 45.140625 0.859375 47.328125 3 47.875 L 19 51.875 C 20.953125 52.40625 23 51.375 23.75 49.5 L 28 38.875 L 28 52.625 L 20.375 72 C 19.96875 72.796875 19.96875 73.953125 20.375 74.75 L 28.375 93.625 C 28.78125 95.21875 30.40625 96 32 96 C 32.40625 96 32.828125 96.03125 33.625 95.625 C 35.625 94.828125 36.796875 92.75 36 90.75 L 29.625 73.625 L 37.5 57 L 40 74 C 40 74.796875 40.34375 75.578125 40.75 76.375 L 52.75 91.25 C 53.546875 92.046875 54.796875 92.75 56 92.75 C 56.796875 92.75 57.578125 92.40625 58.375 92 C 59.96875 90.40625 60.453125 87.96875 59.25 86.375 L 48 72.375 L 48 29.75 L 57.125 38.875 C 58.484375 40.265625 60.640625 40.46875 62.25 39.375 L 74.25 31.375 C 76.109375 30.125 76.625 27.609375 75.375 25.75 C 74.125 23.890625 71.609375 23.375 69.75 24.625 L 60.5 30.75 L 50.875 21.125 C 49.984375 20.25 48.734375 19.828125 47.5 20 Z M 84 36.75 L 84 40.25 C 83.984375 40.421875 83.984375 40.578125 84 40.75 L 84 53 C 83.359375 52.953125 82.71875 53.078125 82 53.25 C 78.796875 54.046875 76 56.828125 76 59.625 C 76 62.421875 78.796875 64.046875 82 63.25 C 84.9375 62.515625 87.453125 60.046875 87.875 57.5 C 87.921875 57.375 87.96875 57.25 88 57.125 C 88 57.046875 88 56.953125 88 56.875 C 88 56.828125 88 56.796875 88 56.75 L 88 44.5 C 94.796875 46.21875 96 52 96 52 L 96 48 C 96 42.40625 91.59375 36.75 84 36.75 Z M 84 36.75 "/>
</g>
</svg>
