<?xml version="1.0" encoding="UTF-8"?>
<svg xmlns="http://www.w3.org/2000/svg" xmlns:xlink="http://www.w3.org/1999/xlink" width="100pt" height="100pt" viewBox="0 0 100 100" version="1.1">
<g id="surface5188839">
<path style=" stroke:none;fill-rule:nonzero;fill:rgb(100%,100%,100%);fill-opacity:1;" d="M 94.1875 0 C 93.835938 0.078125 93.507812 0.25 93.25 0.5 L 85.625 7.25 L 83.375 5 C 82.773438 4.398438 82 4 81 4 C 79.398438 4 78.1875 5.585938 78.1875 7.1875 C 78.1875 8.789062 79.585938 10.1875 81.1875 10.1875 C 81.390625 10.1875 81.796875 10 82 10 L 82.25 10.25 L 80.3125 11.9375 L 77.375 9 C 76.773438 8.398438 76 8 75 8 C 73.398438 8 72.1875 9.585938 72.1875 11.1875 C 72.1875 12.789062 73.585938 14.1875 75.1875 14.1875 C 75.390625 14.1875 75.796875 14 76 14 L 76.9375 14.9375 L 65.75 24.875 C 62.601562 22.40625 58.21875 20 53 20 C 49.820312 20 46.164062 20.96875 42.625 23.625 C 42.601562 23.625 42.585938 23.625 42.5625 23.625 C 40.882812 24.929688 37.859375 26.960938 34.4375 29.375 C 33.960938 29.710938 33.65625 30.226562 33.601562 30.804688 C 33.539062 31.382812 33.734375 31.953125 34.125 32.375 C 35.851562 34.265625 35.945312 35.5 35.375 37.25 C 34.804688 39 33.210938 41.164062 31 43.375 C 28.125 46.25 25.398438 48 23.375 48 C 22.203125 48 21.148438 47.507812 19.625 46.1875 C 18.945312 45.507812 18.609375 44.875 18.5625 44.6875 C 18.390625 44.015625 17.875 43.484375 17.21875 43.28125 C 16.554688 43.078125 15.835938 43.234375 15.3125 43.6875 C 12.515625 46.085938 9.664062 48.523438 7.1875 51 C 1.335938 56.851562 -0.898438 63.65625 0.0625 70.3125 C 0.921875 76.234375 4.179688 81.914062 9.125 87.125 L 0 99.375 L 0.625 100 L 12.875 90.875 C 19.023438 96.585938 25.835938 100 32.8125 100 C 38.578125 100 44.109375 97.515625 49 92.625 C 51.4375 90.1875 53.921875 87.507812 56.375 84.4375 C 56.734375 83.96875 56.867188 83.359375 56.734375 82.773438 C 56.601562 82.195312 56.21875 81.703125 55.6875 81.4375 C 55.125 81.15625 54.492188 80.679688 53.8125 80 C 51.789062 77.976562 51.640625 76.640625 52.1875 74.875 C 52.726562 73.117188 54.414062 70.9375 56.625 68.625 C 59.5 65.75 62.164062 64 64.1875 64 C 65.289062 64 66.375 64.351562 67.6875 65.5 C 68.117188 65.867188 68.679688 66.03125 69.242188 65.960938 C 69.796875 65.890625 70.304688 65.585938 70.625 65.125 C 73.039062 61.703125 75.070312 58.679688 76.375 57 C 76.398438 57 76.414062 57 76.4375 57 C 79.9375 52.1875 80.523438 47.195312 79.625 43 C 78.851562 39.40625 77.09375 36.414062 75.25 34.0625 L 88.8125 18.8125 L 90 20 C 90 20.203125 89.8125 20.609375 89.8125 20.8125 C 89.8125 22.414062 91.210938 23.8125 92.8125 23.8125 C 94.414062 23.8125 95.8125 22.414062 95.8125 20.8125 C 96.015625 20.015625 95.601562 19.226562 95 18.625 L 91.8125 15.4375 L 93.5 13.5 L 94 14 C 94 14.203125 93.8125 14.609375 93.8125 14.8125 C 93.8125 16.414062 95.210938 17.8125 96.8125 17.8125 C 98.414062 17.8125 100 16.601562 100 15 C 100 14 99.601562 13.226562 99 12.625 L 96.5 10.125 L 99.5 6.75 C 100.210938 5.960938 100.1875 4.757812 99.4375 4 L 96 0.5625 C 95.570312 0.140625 94.976562 -0.0703125 94.375 0 C 94.3125 0 94.25 0 94.1875 0 Z M 94.5 4.75 L 95.25 5.5 L 55.5 50.3125 L 49.6875 44.5 Z M 53 24 C 56.6875 24 60.046875 25.671875 62.6875 27.625 L 45.5 42.875 C 45.070312 43.234375 44.820312 43.757812 44.796875 44.3125 C 44.773438 44.875 44.984375 45.414062 45.375 45.8125 L 54.1875 54.625 C 54.585938 55.015625 55.125 55.226562 55.6875 55.203125 C 56.242188 55.179688 56.765625 54.929688 57.125 54.5 L 72.5625 37.125 C 73.953125 39.046875 75.210938 41.375 75.75 43.875 C 76.445312 47.109375 76.09375 50.609375 73.25 54.5625 C 73.234375 54.585938 73.203125 54.601562 73.1875 54.625 C 71.976562 56.1875 70.234375 58.726562 68.4375 61.3125 C 67.054688 60.53125 65.625 60 64.1875 60 C 60.210938 60 56.9375 62.6875 53.8125 65.8125 C 53.789062 65.8125 53.773438 65.8125 53.75 65.8125 C 51.382812 68.289062 49.28125 70.757812 48.375 73.6875 C 47.46875 76.617188 48.226562 80.039062 51 82.8125 C 51.28125 83.09375 51.585938 83.25 51.875 83.5 C 49.992188 85.742188 48.085938 87.914062 46.1875 89.8125 C 41.875 94.125 37.445312 96 32.8125 96 C 27.765625 96 22.5625 93.679688 17.5 89.5 C 17.585938 89.445312 17.671875 89.382812 17.75 89.3125 L 34.9375 74.125 C 35.351562 73.757812 35.601562 73.226562 35.609375 72.671875 C 35.625 72.109375 35.398438 71.578125 35 71.1875 L 28.8125 65 C 28.4375 64.601562 27.921875 64.382812 27.375 64.375 C 26.820312 64.398438 26.296875 64.640625 25.9375 65.0625 L 10.6875 82.0625 C 10.5625 82.195312 10.460938 82.34375 10.375 82.5 C 6.820312 78.273438 4.609375 73.914062 4 69.6875 C 3.210938 64.242188 4.851562 58.960938 10 53.8125 C 11.84375 51.96875 14.046875 50.023438 16.25 48.125 C 16.476562 48.382812 16.570312 48.757812 16.8125 49 C 16.828125 49.039062 16.851562 49.085938 16.875 49.125 C 18.867188 50.898438 20.984375 52 23.375 52 C 27.351562 52 30.6875 49.3125 33.8125 46.1875 C 36.203125 43.796875 38.257812 41.351562 39.1875 38.5 C 39.90625 36.289062 39.398438 33.890625 38.125 31.625 C 40.804688 29.757812 43.398438 27.992188 45 26.75 L 45 26.8125 C 47.859375 24.671875 50.578125 24 53 24 Z M 27.5 69.3125 L 30.6875 72.5 L 15.0625 86.3125 C 14.859375 86.484375 14.6875 86.695312 14.5625 86.9375 C 14.304688 86.6875 14.0625 86.445312 13.8125 86.1875 C 13.789062 86.164062 13.773438 86.148438 13.75 86.125 C 13.453125 85.84375 13.21875 85.53125 12.9375 85.25 C 13.21875 85.140625 13.476562 84.96875 13.6875 84.75 Z M 27.5 69.3125 "/>
</g>
</svg>
