<?xml version="1.0" encoding="UTF-8"?>
<svg xmlns="http://www.w3.org/2000/svg" xmlns:xlink="http://www.w3.org/1999/xlink" width="96pt" height="96pt" viewBox="0 0 96 96" version="1.1">
<g id="surface5194232">
<path style=" stroke:none;fill-rule:nonzero;fill:rgb(100%,100%,100%);fill-opacity:1;" d="M 48 8 C 25.945312 8 8 25.945312 8 48 C 8 70.054688 25.945312 88 48 88 C 70.054688 88 88 70.054688 88 48 C 88 25.945312 70.054688 8 48 8 Z M 64 34 C 67.3125 34 70 36.6875 70 40 C 70 43.3125 67.3125 46 64 46 C 60.6875 46 58 43.3125 58 40 C 58 36.6875 60.6875 34 64 34 Z M 32 34 C 35.3125 34 38 36.6875 38 40 C 38 43.3125 35.3125 46 32 46 C 28.6875 46 26 43.3125 26 40 C 26 36.6875 28.6875 34 32 34 Z M 64.613281 69.320312 C 54.984375 62.441406 41.019531 62.441406 31.386719 69.320312 L 26.738281 62.808594 C 32.921875 58.394531 40.273438 56.0625 48 56.0625 C 55.726562 56.0625 63.078125 58.394531 69.261719 62.808594 Z M 64.613281 69.320312 "/>
</g>
</svg>
