<?xml version="1.0" encoding="UTF-8"?>
<svg xmlns="http://www.w3.org/2000/svg" xmlns:xlink="http://www.w3.org/1999/xlink" width="120pt" height="120pt" viewBox="0 0 120 120" version="1.1">
<g id="surface1906026">
<path style=" stroke:none;fill-rule:nonzero;fill:rgb(100%,100%,100%);fill-opacity:1;" d="M 24 12 C 21.789062 12 20 13.789062 20 16 C 20 16.003906 20 16.011719 20 16.015625 L 20 103.984375 C 20 103.988281 20 103.996094 20 104 C 20 106.210938 21.789062 108 24 108 C 24.832031 107.996094 25.644531 107.734375 26.320312 107.25 L 26.328125 107.257812 L 105.664062 63.632812 C 107.085938 62.980469 108 61.5625 108 60 C 108 58.390625 107.039062 56.9375 105.554688 56.3125 L 26.328125 12.742188 L 26.320312 12.742188 C 25.644531 12.257812 24.832031 12 24 12 Z M 24 12 "/>
</g>
</svg>
