<?xml version="1.0" encoding="UTF-8"?>
<svg xmlns="http://www.w3.org/2000/svg" xmlns:xlink="http://www.w3.org/1999/xlink" width="60pt" height="60pt" viewBox="0 0 60 60" version="1.1">
<g id="surface5189132">
<path style=" stroke:none;fill-rule:nonzero;fill:rgb(100%,100%,100%);fill-opacity:1;" d="M 30 3.996094 C 29.578125 3.996094 29.15625 4.128906 28.800781 4.398438 L 20.800781 10.398438 C 20.378906 10.710938 20.101562 11.183594 20.023438 11.703125 L 18.410156 22.4375 L 21.929688 25.953125 L 23.722656 14 L 28 14 L 28 32 L 32 36 L 32 32 C 33.105469 32 34 31.105469 34 30 C 34 28.894531 33.105469 28 32 28 L 32 26 C 33.105469 26 34 25.105469 34 24 C 34 22.894531 33.105469 22 32 22 L 32 20 C 33.105469 20 34 19.105469 34 18 C 34 16.894531 33.105469 16 32 16 L 32 14 L 36.277344 14 L 40.179688 40 L 30.828125 40 L 9.414062 18.585938 C 9.039062 18.199219 8.519531 17.980469 7.980469 17.980469 C 7.167969 17.980469 6.433594 18.472656 6.128906 19.226562 C 5.820312 19.980469 6.003906 20.847656 6.585938 21.414062 L 17.003906 31.832031 L 14.023438 51.703125 C 13.9375 52.277344 14.105469 52.863281 14.484375 53.304688 C 14.863281 53.746094 15.417969 54 16 54 L 18 54 C 18 55.105469 18.894531 56 20 56 C 21.105469 56 22 55.105469 22 54 L 38 54 C 38 55.105469 38.894531 56 40 56 C 41.105469 56 42 55.105469 42 54 L 44 54 C 44.582031 54 45.136719 53.746094 45.515625 53.304688 C 45.894531 52.863281 46.0625 52.277344 45.976562 51.703125 L 44.820312 44 L 48.261719 44 C 48.984375 44.011719 49.652344 43.632812 50.015625 43.007812 C 50.382812 42.386719 50.382812 41.613281 50.015625 40.992188 C 49.652344 40.367188 48.984375 39.988281 48.261719 40 L 44.222656 40 L 39.976562 11.703125 C 39.898438 11.183594 39.621094 10.710938 39.199219 10.398438 L 31.199219 4.398438 C 30.84375 4.128906 30.421875 3.996094 30 3.996094 Z M 20.519531 35.347656 L 25.171875 40 L 19.820312 40 Z M 20.519531 35.347656 "/>
</g>
</svg>
