<?xml version="1.0" encoding="UTF-8"?>
<svg xmlns="http://www.w3.org/2000/svg" xmlns:xlink="http://www.w3.org/1999/xlink" width="96pt" height="96pt" viewBox="0 0 96 96" version="1.1">
<g id="surface4762777">
<path style=" stroke:none;fill-rule:nonzero;fill:rgb(100%,100%,100%);fill-opacity:1;" d="M 48 8 C 25.90625 8 8 25.90625 8 48 C 8 70.09375 25.90625 88 48 88 C 70.09375 88 88 70.09375 88 48 C 88 25.90625 70.09375 8 48 8 Z M 48 16 C 65.671875 16 80 30.328125 80 48 C 80 65.671875 65.671875 80 48 80 C 30.328125 80 16 65.671875 16 48 C 16 30.328125 30.328125 16 48 16 Z M 34 32 C 30.6875 32 28 34.6875 28 38 C 28 41.3125 30.6875 44 34 44 C 37.3125 44 40 41.3125 40 38 C 40 34.6875 37.3125 32 34 32 Z M 62 32 C 58.6875 32 56 34.6875 56 38 C 56 41.3125 58.6875 44 62 44 C 65.3125 44 68 41.3125 68 38 C 68 34.6875 65.3125 32 62 32 Z M 27.5625 56 C 30.761719 64.160156 38.679688 70 48 70 C 57.320312 70 65.238281 64.160156 68.4375 56 Z M 27.5625 56 "/>
</g>
</svg>
