<?xml version="1.0" encoding="UTF-8"?>
<svg xmlns="http://www.w3.org/2000/svg" xmlns:xlink="http://www.w3.org/1999/xlink" width="100pt" height="100pt" viewBox="0 0 100 100" version="1.1">
<g id="surface1093534">
<path style=" stroke:none;fill-rule:nonzero;fill:rgb(100%,100%,100%);fill-opacity:1;" d="M 34.0625 8 C 13.078125 8 4 26.03125 4 35.234375 C 4 45.429688 9.695312 52.703125 15.375 57.421875 L 13.890625 62.976562 L 19.515625 76 L 19.6875 76 L 26.757812 81.570312 L 29.242188 78.429688 L 26.15625 76 L 30 76 L 30 72 L 22.140625 72 L 18.109375 62.671875 L 18.828125 60.007812 C 22 62.15625 24.773438 63.476562 26 64 C 26.945312 65.453125 29.507812 68.734375 33.640625 69.703125 L 31.804688 75.0625 L 39.710938 88 L 39.90625 88 L 39.84375 88.101562 L 48.953125 93.703125 L 51.046875 90.296875 L 47.3125 88 L 52 88 L 52 84 L 41.945312 84 L 36.195312 74.585938 L 38.78125 67.054688 C 41.710938 62.546875 47.875 60 56 60 C 62.375 60 65.375 52.96875 67.617188 47.835938 C 68.195312 46.5 68.96875 44.734375 69.46875 44.039062 C 70.203125 44.195312 71.09375 44.71875 72.09375 45.3125 C 73.765625 46.3125 75.796875 47.5 78.523438 47.875 C 79.4375 49.140625 85.148438 57.054688 87.375 60.96875 C 92.695312 70.335938 96.46875 78.1875 97.320312 78 C 98.101562 77.828125 96.679688 73.609375 90.976562 60.757812 C 87.421875 52.726562 85.804688 48.6875 84.851562 46.1875 C 87.609375 44.140625 90 40.507812 90 36 C 90 29.039062 83.585938 20 73.914062 20 C 70.585938 20 68.335938 20.75 66.53125 21.34375 C 65.53125 21.679688 64.71875 21.953125 63.992188 21.992188 C 63.453125 21.71875 62.179688 20.640625 61.140625 19.765625 C 56.265625 15.65625 47.1875 8 34.0625 8 Z M 78 34 C 79.101562 34 80 34.898438 80 36 C 80 37.101562 79.101562 38 78 38 C 76.898438 38 76 37.101562 76 36 C 76 34.898438 76.898438 34 78 34 Z M 78 34 "/>
</g>
</svg>
