<?xml version="1.0" encoding="UTF-8"?>
<svg xmlns="http://www.w3.org/2000/svg" xmlns:xlink="http://www.w3.org/1999/xlink" width="100pt" height="100pt" viewBox="0 0 100 100" version="1.1">
<g id="surface1035792">
<path style=" stroke:none;fill-rule:nonzero;fill:rgb(228, 93, 94);fill-opacity:1;" d="M 67.273438 18 C 60.578125 18 54.296875 20.914062 50 25.914062 C 45.703125 20.914062 39.429688 18 32.726562 18 C 20.195312 18 10 28.125 10 40.570312 C 10 60.828125 28.617188 73.53125 40.9375 81.9375 C 44.039062 84.054688 46.726562 85.882812 48.726562 87.539062 L 50 88.59375 L 51.273438 87.539062 C 53.273438 85.882812 55.953125 84.054688 59.0625 81.9375 C 71.382812 73.53125 90 60.828125 90 40.570312 C 90 28.125 79.804688 18 67.273438 18 Z M 66 46 C 66 48 64 48 64 48 C 57.5 48 57.5 46 54.921875 46 C 54.117188 46 54 46.6875 54 48.070312 C 54 50.617188 54 61.296875 54 64 C 54 66.703125 53.507812 72 46 72 C 38.492188 72 38 68.398438 38 66 C 38 62.4375 40.289062 60 46 60 C 50 60 50 58.234375 50 56 C 50 48.039062 50 39.15625 50 38 C 50 36.9375 50.390625 36 52 36 C 58 36 57.5 38 64 38 C 65.28125 38 66 38.5 66 40 C 66 40.976562 66 43.429688 66 46 Z M 66 46 "/>
</g>
</svg>
