<?xml version="1.0" encoding="UTF-8"?>
<svg xmlns="http://www.w3.org/2000/svg" xmlns:xlink="http://www.w3.org/1999/xlink" width="50pt" height="50pt" viewBox="0 0 50 50" version="1.1">
<g id="surface1313705">
<path style=" stroke:none;fill-rule:nonzero;fill:rgb(100%,100%,100%);fill-opacity:1;" d="M 45.5 2 C 43.578125 2 42 3.578125 42 5.5 L 42 13.464844 L 36.699219 17 L 27.539062 17 L 21.980469 13.347656 L 17.148438 6.226562 C 16.066406 4.636719 13.871094 4.21875 12.285156 5.300781 C 10.695312 6.378906 10.277344 8.570312 11.355469 10.160156 L 16.769531 18.121094 C 17.175781 18.71875 17.707031 19.21875 18.324219 19.589844 L 24.882812 23.5 L 24.109375 27.519531 C 24.082031 27.574219 24.058594 27.632812 24.039062 27.691406 C 24.039062 27.691406 24.039062 27.691406 24.039062 27.695312 C 22.320312 32.140625 15.667969 32.136719 13.957031 27.6875 C 13.839844 27.3125 13.511719 27.039062 13.121094 26.996094 C 13.097656 26.992188 13.074219 26.988281 13.046875 26.988281 C 13.023438 26.988281 12.996094 26.988281 12.972656 26.988281 C 12.964844 26.988281 12.957031 26.988281 12.949219 26.988281 C 12.941406 26.988281 12.929688 26.988281 12.921875 26.992188 C 12.910156 26.992188 12.898438 26.992188 12.882812 26.996094 C 12.871094 26.996094 12.855469 26.996094 12.84375 27 C 12.464844 27.058594 12.152344 27.324219 12.039062 27.691406 C 12.039062 27.691406 12.039062 27.691406 12.039062 27.695312 C 10.316406 32.15625 3.621094 32.144531 1.933594 27.648438 C 1.820312 27.300781 1.523438 27.046875 1.164062 26.980469 C 0.800781 26.917969 0.433594 27.054688 0.207031 27.339844 C -0.0234375 27.625 -0.078125 28.015625 0.0625 28.351562 C 2.140625 33.886719 9.792969 34.398438 13 29.976562 C 15.847656 33.902344 22.152344 33.902344 25 29.976562 C 27.847656 33.902344 34.152344 33.902344 37 29.976562 C 40.207031 34.398438 47.859375 33.886719 49.933594 28.351562 C 50.078125 28.015625 50.023438 27.625 49.792969 27.339844 C 49.566406 27.054688 49.199219 26.917969 48.835938 26.980469 C 48.476562 27.046875 48.179688 27.300781 48.0625 27.648438 C 46.414062 32.050781 39.992188 32.125 38.101562 27.941406 L 39.828125 23.625 L 47.550781 17.617188 C 48.464844 16.90625 49 15.808594 49 14.652344 L 49 5.5 C 49 3.578125 47.421875 2 45.5 2 Z M 45.5 4 C 46.339844 4 47 4.660156 47 5.5 L 47 14.652344 C 47 15.195312 46.75 15.707031 46.324219 16.035156 C 46.324219 16.035156 46.324219 16.035156 46.320312 16.035156 L 38.496094 22.125 L 38.488281 22.132812 C 38.394531 22.191406 38.3125 22.261719 38.238281 22.34375 C 38.222656 22.363281 38.207031 22.382812 38.191406 22.402344 C 38.175781 22.425781 38.160156 22.453125 38.144531 22.476562 C 38.089844 22.558594 38.050781 22.652344 38.023438 22.746094 L 36.132812 27.480469 C 36.09375 27.546875 36.0625 27.617188 36.039062 27.691406 C 34.351562 32.0625 27.925781 32.113281 26.074219 27.890625 L 26.953125 23.34375 C 27.039062 23.105469 27.03125 22.84375 26.929688 22.609375 C 26.929688 22.609375 26.925781 22.605469 26.925781 22.601562 C 26.917969 22.582031 26.910156 22.566406 26.902344 22.546875 C 26.898438 22.546875 26.898438 22.546875 26.898438 22.542969 C 26.789062 22.320312 26.601562 22.148438 26.371094 22.054688 C 26.367188 22.054688 26.367188 22.054688 26.367188 22.050781 L 19.351562 17.867188 C 19.347656 17.867188 19.347656 17.867188 19.347656 17.867188 C 18.980469 17.648438 18.664062 17.351562 18.425781 16.996094 L 13.011719 9.035156 C 12.539062 8.339844 12.714844 7.421875 13.410156 6.949219 C 14.105469 6.476562 15.019531 6.652344 15.492188 7.347656 L 20.449219 14.648438 C 20.539062 14.785156 20.664062 14.894531 20.8125 14.972656 C 20.8125 14.972656 20.816406 14.976562 20.816406 14.976562 L 26.699219 18.84375 C 26.914062 18.988281 27.175781 19.042969 27.425781 19 L 36.871094 19 C 37.007812 19.015625 37.148438 19.003906 37.277344 18.960938 C 37.285156 18.960938 37.292969 18.960938 37.296875 18.957031 C 37.304688 18.957031 37.308594 18.957031 37.316406 18.953125 C 37.316406 18.953125 37.320312 18.949219 37.324219 18.949219 C 37.449219 18.910156 37.5625 18.84375 37.664062 18.757812 L 43.425781 14.917969 C 43.59375 14.839844 43.738281 14.710938 43.839844 14.554688 C 43.859375 14.527344 43.875 14.5 43.890625 14.46875 C 43.894531 14.464844 43.894531 14.460938 43.898438 14.453125 C 43.902344 14.449219 43.90625 14.441406 43.910156 14.429688 C 43.996094 14.25 44.027344 14.046875 44 13.847656 L 44 5.5 C 44 4.660156 44.660156 4 45.5 4 Z M 32.5 5 C 30.75 5 29.308594 5.691406 28.378906 6.742188 C 27.445312 7.792969 27 9.152344 27 10.5 C 27 11.847656 27.445312 13.207031 28.378906 14.257812 C 29.308594 15.308594 30.75 16 32.5 16 C 34.25 16 35.691406 15.308594 36.621094 14.257812 C 37.554688 13.207031 38 11.847656 38 10.5 C 38 9.152344 37.554688 7.792969 36.621094 6.742188 C 35.691406 5.691406 34.25 5 32.5 5 Z M 32.5 7 C 33.75 7 34.558594 7.433594 35.128906 8.070312 C 35.695312 8.707031 36 9.597656 36 10.5 C 36 11.402344 35.695312 12.292969 35.128906 12.929688 C 34.558594 13.566406 33.75 14 32.5 14 C 31.25 14 30.441406 13.566406 29.871094 12.929688 C 29.304688 12.292969 29 11.402344 29 10.5 C 29 9.597656 29.304688 8.707031 29.871094 8.070312 C 30.441406 7.433594 31.25 7 32.5 7 Z M 35.488281 35.488281 C 35.082031 35.492188 34.71875 35.738281 34.5625 36.113281 C 34.410156 36.492188 34.5 36.921875 34.792969 37.207031 L 37.585938 40 L 12.3125 40 C 11.953125 39.996094 11.617188 40.183594 11.433594 40.496094 C 11.253906 40.808594 11.253906 41.191406 11.433594 41.503906 C 11.617188 41.816406 11.953125 42.003906 12.3125 42 L 37.585938 42 L 34.792969 44.792969 C 34.53125 45.042969 34.425781 45.417969 34.519531 45.765625 C 34.609375 46.117188 34.882812 46.390625 35.234375 46.480469 C 35.582031 46.574219 35.957031 46.46875 36.207031 46.207031 L 40.707031 41.707031 C 41.097656 41.316406 41.097656 40.683594 40.707031 40.292969 L 36.207031 35.792969 C 36.019531 35.597656 35.761719 35.492188 35.488281 35.488281 Z M 35.488281 35.488281 "/>
</g>
</svg>
