<?xml version="1.0" encoding="UTF-8" standalone="yes"?>
<svg xmlns="http://www.w3.org/2000/svg" viewBox="0 0 50 50" width="50" height="50" fill="#ffffff">
  <path d="M 15.263672 2.078125 C 9.3357681 4.5638182 4.5638182 9.3357681 2.078125 15.263672 L 3.921875 16.037109 C 6.2021818 10.599013 10.599013 6.2021818 16.037109 3.921875 L 15.263672 2.078125 z M 25 4 C 13.413865 4 4 13.413865 4 25 C 4 36.586135 13.413865 46 25 46 C 36.586135 46 46 36.586135 46 25 C 46 13.413865 36.586135 4 25 4 z M 25 6 C 35.505255 6 44 14.494745 44 25 C 44 35.505255 35.505255 44 25 44 C 14.494745 44 6 35.505255 6 25 C 6 14.494745 14.494745 6 25 6 z M 24 10 L 24 23.271484 A 2 2 0 0 0 23 25 A 2 2 0 0 0 25 27 A 2 2 0 0 0 25.517578 26.931641 L 31.292969 32.707031 L 32.707031 31.292969 L 26.929688 25.515625 A 2 2 0 0 0 27 25 A 2 2 0 0 0 26 23.269531 L 26 10 L 24 10 z M 46.083984 33.951172 C 43.707243 39.408555 39.397438 43.799306 33.962891 46.078125 L 34.736328 47.921875 C 40.667781 45.434694 45.342757 40.658617 47.916016 34.75 L 46.083984 33.951172 z"/>
</svg>