<?xml version="1.0" encoding="UTF-8"?>
<svg xmlns="http://www.w3.org/2000/svg" xmlns:xlink="http://www.w3.org/1999/xlink" width="50pt" height="50pt" viewBox="0 0 50 50" version="1.1">
<g id="surface1102320">
<path style=" stroke:none;fill-rule:nonzero;fill:rgb(100%,100%,100%);fill-opacity:1;" d="M 13 7 C 12.449219 7 12 7.449219 12 8 C 12 8.550781 12.449219 9 13 9 L 19.5625 9 L 2.28125 26.28125 C 1.890625 26.671875 1.890625 27.328125 2.28125 27.71875 C 2.476562 27.914062 2.742188 28 3 28 C 3.257812 28 3.523438 27.914062 3.71875 27.71875 L 21 10.4375 L 21 17 C 21 17.550781 21.449219 18 22 18 C 22.550781 18 23 17.550781 23 17 L 23 7 Z M 34 11 L 34 50 L 48 50 L 48 11 Z M 18 24 L 18 50 L 32 50 L 32 24 Z M 2 35 L 2 50 L 16 50 L 16 35 Z M 2 35 "/>
</g>
</svg>
