<?xml version="1.0" encoding="UTF-8"?>
<svg xmlns="http://www.w3.org/2000/svg" xmlns:xlink="http://www.w3.org/1999/xlink" width="100pt" height="100pt" viewBox="0 0 100 100" version="1.1">
<g id="surface773620">
<path style=" stroke:none;fill-rule:nonzero;fill:rgb(100%,100%,100%);fill-opacity:1;" d="M 18 4 C 9.835938 4 4.734375 9.191406 4.074219 18 C 4.023438 18.648438 4 19.3125 4 20 L 4 23 C 4 25.761719 6.238281 28 9 28 C 11.417969 28 13.433594 26.28125 13.898438 24 C 13.964844 23.675781 14 23.34375 14 23 L 14 14 C 14 11.492188 14.035156 8.597656 17.0625 8.101562 C 17.316406 8.027344 17.617188 8 17.992188 8 L 18 8 C 22.011719 8 24.003906 10.988281 24.996094 13.980469 C 24.988281 13.984375 24.984375 13.984375 24.976562 13.988281 C 25.730469 16.238281 25.882812 18.117188 25.933594 19.113281 C 17.28125 25.179688 12 34.691406 12 46 C 12 53.582031 13.351562 61.355469 16.003906 69.09375 C 16.785156 71.371094 18.191406 73.703125 20 75.757812 L 20 82 C 20 88.667969 23.628906 92.550781 27.105469 94.289062 C 30.582031 96.027344 34 96 34 96 C 34.691406 96 35.335938 95.640625 35.703125 95.050781 C 36.066406 94.460938 36.097656 93.726562 35.789062 93.105469 C 35.789062 93.105469 34 89.667969 34 82 L 38 82 L 38 83 C 38 86.84375 41.15625 90 45 90 C 46.519531 90 47.917969 89.492188 49.070312 88.660156 C 50.308594 90.652344 52.5 92 55 92 C 58.84375 92 62 88.84375 62 85 L 62 82 L 66 82 C 66 89.667969 64.210938 93.105469 64.210938 93.105469 C 63.902344 93.726562 63.933594 94.460938 64.296875 95.050781 C 64.664062 95.640625 65.308594 96 66 96 C 66 96 69.417969 96.027344 72.894531 94.289062 C 76.371094 92.550781 80 88.667969 80 82 L 80 75.757812 C 81.808594 73.703125 83.214844 71.371094 83.996094 69.09375 C 86.648438 61.355469 88 53.582031 88 46 C 88 33.886719 81.945312 23.835938 72.175781 17.875 C 72.703125 16.46875 74.867188 12.019531 81.957031 12 C 81.964844 12 81.980469 12.003906 81.992188 12.007812 L 82 12 C 82 12 86 12 86 18 L 86 21 C 86 23.761719 88.238281 26 91 26 C 93.417969 26 95.433594 24.28125 95.898438 22 C 95.964844 21.675781 96 21.34375 96 21 L 96 19.5 C 96 15.226562 93.050781 8 82 8 C 74.15625 8 70.140625 12.570312 68.628906 15.949219 C 63.21875 13.410156 56.90625 12 50 12 C 42.367188 12 35.488281 13.75 29.722656 16.816406 C 28.917969 11.199219 25.890625 4 18 4 Z M 31 54 C 33.761719 54 36 56.238281 36 59 C 36 61.761719 33.761719 64 31 64 C 28.238281 64 26 61.761719 26 59 C 26 58.609375 26.054688 58.230469 26.140625 57.863281 C 26.511719 59.09375 27.644531 60 29 60 C 30.65625 60 32 58.65625 32 57 C 32 55.644531 31.09375 54.511719 29.863281 54.140625 C 30.230469 54.054688 30.609375 54 31 54 Z M 71 54 C 73.761719 54 76 56.238281 76 59 C 76 61.761719 73.761719 64 71 64 C 68.238281 64 66 61.761719 66 59 C 66 58.609375 66.054688 58.230469 66.140625 57.863281 C 66.511719 59.09375 67.644531 60 69 60 C 70.65625 60 72 58.65625 72 57 C 72 55.644531 71.09375 54.511719 69.863281 54.140625 C 70.230469 54.054688 70.609375 54 71 54 Z M 24 79.28125 C 25.855469 80.539062 27.882812 81.449219 30 81.808594 L 30 82 C 30 86.03125 30.535156 89.085938 31.070312 91.261719 C 30.179688 91.078125 29.96875 91.25 28.894531 90.710938 C 26.371094 89.449219 24 87.332031 24 82 Z M 76 79.28125 L 76 82 C 76 87.332031 73.628906 89.449219 71.105469 90.710938 C 70.03125 91.25 69.820312 91.078125 68.929688 91.261719 C 69.464844 89.085938 70 86.03125 70 82 L 70 81.808594 C 72.117188 81.449219 74.144531 80.539062 76 79.28125 Z M 42 82 L 48 82 L 48 83 C 48 84.679688 46.679688 86 45 86 C 43.320312 86 42 84.679688 42 83 Z M 52 82 L 58 82 L 58 85 C 58 86.679688 56.679688 88 55 88 C 53.320312 88 52 86.679688 52 85 Z M 52 82 "/>
</g>
</svg>
