<?xml version="1.0" encoding="UTF-8"?>
<svg xmlns="http://www.w3.org/2000/svg" xmlns:xlink="http://www.w3.org/1999/xlink" width="100pt" height="100pt" viewBox="0 0 100 100" version="1.1">
<g id="surface2477004">
<path style=" stroke:none;fill-rule:nonzero;fill:rgb(100%,100%,100%);fill-opacity:1;" d="M 24 0 C 21.8125 0 20 1.8125 20 4 L 20 8 L 8 8 C 5.679688 8 4 9.679688 4 12 L 4 26 L 96 26 L 96 12 C 96 9.679688 94.320312 8 92 8 L 80 8 L 80 4 C 80 1.8125 78.1875 0 76 0 L 72 0 C 69.8125 0 68 1.8125 68 4 L 68 8 L 32 8 L 32 4 C 32 1.8125 30.1875 0 28 0 Z M 24 4 L 28 4 L 28 16 L 24 16 Z M 72 4 L 76 4 L 76 16 L 72 16 Z M 4 30 L 4 92 C 4 94.3125 5.679688 96 8 96 L 92 96 C 94.3125 96 96 94.3125 96 92 L 96 30 Z M 60.375 60 L 75.625 60 C 76.9375 60 78 61.0625 78 62.375 L 78 77.625 C 78 78.9375 76.9375 80 75.625 80 L 60.375 80 C 59.0625 80 58 78.9375 58 77.625 L 58 62.375 C 58 61.0625 59.0625 60 60.375 60 Z M 60.375 60 "/>
</g>
</svg>
