<?xml version="1.0" encoding="UTF-8"?>
<svg xmlns="http://www.w3.org/2000/svg" xmlns:xlink="http://www.w3.org/1999/xlink" width="50pt" height="50pt" viewBox="0 0 50 50" version="1.1">
<g id="surface1103015">
<path style=" stroke:none;fill-rule:nonzero;fill:rgb(100%,100%,100%);fill-opacity:1;" d="M 8 3 C 7.449219 3 7 3.449219 7 4 L 7 30 C 7 30.554688 7.449219 31 8 31 L 13 31 C 13.554688 31 14 30.554688 14 30 L 14 4 C 14 3.449219 13.554688 3 13 3 Z M 17 3 C 16.449219 3 16 3.449219 16 4 L 16 30 C 16 30.554688 16.449219 31 17 31 L 22 31 C 22.554688 31 23 30.554688 23 30 L 23 4 C 23 3.449219 22.554688 3 22 3 Z M 9.5 7 L 11.5 7 C 12.054688 7 12.5 7.449219 12.5 8 C 12.5 8.550781 12.054688 9 11.5 9 L 9.5 9 C 8.945312 9 8.5 8.550781 8.5 8 C 8.5 7.449219 8.945312 7 9.5 7 Z M 18.5 7 L 20.5 7 C 21.054688 7 21.5 7.449219 21.5 8 C 21.5 8.550781 21.054688 9 20.5 9 L 18.5 9 C 17.945312 9 17.5 8.550781 17.5 8 C 17.5 7.449219 17.945312 7 18.5 7 Z M 37.59375 8.4375 L 32.75 9.59375 C 32.492188 9.65625 32.265625 9.804688 32.125 10.03125 C 32.066406 10.125 32.023438 10.238281 32 10.34375 L 32 10 C 32 9.449219 31.554688 9 31 9 L 26 9 C 25.449219 9 25 9.449219 25 10 L 25 30 C 25 30.554688 25.449219 31 26 31 L 31 31 C 31.554688 31 32 30.554688 32 30 L 32 10.78125 L 36.8125 30.25 C 36.921875 30.710938 37.328125 31.03125 37.78125 31.03125 C 37.855469 31.03125 37.921875 31.015625 38 31 L 42.875 29.84375 C 43.132812 29.78125 43.359375 29.632812 43.5 29.40625 C 43.640625 29.179688 43.6875 28.914062 43.625 28.65625 L 38.8125 9.1875 C 38.683594 8.648438 38.128906 8.308594 37.59375 8.4375 Z M 36.96875 12.78125 C 37.351562 12.847656 37.6875 13.128906 37.78125 13.53125 C 37.90625 14.070312 37.566406 14.625 37.03125 14.75 L 36.0625 14.96875 C 35.984375 14.988281 35.917969 15 35.84375 15 C 35.390625 15 34.953125 14.679688 34.84375 14.21875 C 34.71875 13.679688 35.058594 13.15625 35.59375 13.03125 L 36.5625 12.8125 C 36.695312 12.78125 36.839844 12.757812 36.96875 12.78125 Z M 28 13 L 29 13 C 29.554688 13 30 13.449219 30 14 C 30 14.550781 29.554688 15 29 15 L 28 15 C 27.445312 15 27 14.550781 27 14 C 27 13.449219 27.445312 13 28 13 Z M 39.53125 24.46875 C 40.066406 24.347656 40.621094 24.679688 40.75 25.21875 C 40.875 25.753906 40.539062 26.28125 40 26.40625 L 39.03125 26.65625 C 38.953125 26.675781 38.855469 26.6875 38.78125 26.6875 C 38.328125 26.6875 37.921875 26.367188 37.8125 25.90625 C 37.6875 25.371094 38.023438 24.8125 38.5625 24.6875 Z M 9.5 25 L 11.5 25 C 12.054688 25 12.5 25.449219 12.5 26 C 12.5 26.550781 12.054688 27 11.5 27 L 9.5 27 C 8.945312 27 8.5 26.550781 8.5 26 C 8.5 25.449219 8.945312 25 9.5 25 Z M 18.5 25 L 20.5 25 C 21.054688 25 21.5 25.449219 21.5 26 C 21.5 26.550781 21.054688 27 20.5 27 L 18.5 27 C 17.945312 27 17.5 26.550781 17.5 26 C 17.5 25.449219 17.945312 25 18.5 25 Z M 28 25 L 29 25 C 29.554688 25 30 25.445312 30 26 C 30 26.554688 29.554688 27 29 27 L 28 27 C 27.445312 27 27 26.554688 27 26 C 27 25.445312 27.445312 25 28 25 Z M 3 32 C 2.449219 32 2 32.445312 2 33 L 2 36 C 2 36.554688 2.449219 37 3 37 L 47 37 C 47.554688 37 48 36.554688 48 36 L 48 33 C 48 32.445312 47.554688 32 47 32 Z M 6 39 L 6 44.5 C 6 45.878906 7.121094 47 8.5 47 C 9.878906 47 11 45.878906 11 44.5 L 11 39 Z M 39 39 L 39 44.5 C 39 45.878906 40.121094 47 41.5 47 C 42.878906 47 44 45.878906 44 44.5 L 44 39 Z M 39 39 "/>
</g>
</svg>
