<?xml version="1.0" standalone="no"?>
<!DOCTYPE svg PUBLIC "-//W3C//DTD SVG 20010904//EN"
 "http://www.w3.org/TR/2001/REC-SVG-20010904/DTD/svg10.dtd">
<svg version="1.0" xmlns="http://www.w3.org/2000/svg"
 width="1500.000000pt" height="1500.000000pt" viewBox="0 0 1500.000000 1500.000000"
 preserveAspectRatio="xMidYMid meet">
<g transform="translate(0.000000,1500.000000) scale(0.100000,-0.100000)"
fill="#52E3C2" stroke="none">
<path d="M7250 14994 c-373 -17 -631 -40 -884 -80 -918 -144 -1804 -454 -2591
-905 -2041 -1170 -3415 -3227 -3714 -5559 -41 -318 -54 -557 -55 -960 0 -401
12 -595 55 -935 363 -2882 2370 -5298 5144 -6195 548 -177 1162 -296 1765
-341 251 -19 902 -17 1133 4 1435 131 2713 610 3847 1441 590 433 1184 1030
1620 1631 743 1024 1218 2232 1374 3495 38 309 50 512 49 900 0 486 -21 773
-88 1195 -255 1601 -1031 3087 -2195 4206 -579 557 -1181 981 -1885 1329 -340
168 -565 261 -945 391 -426 146 -1045 286 -1495 338 -292 34 -872 57 -1135 45z
m-2015 -3628 c63 -30 97 -65 132 -141 l28 -60 0 -3706 0 -3705 -35 -68 c-41
-82 -98 -130 -172 -145 -87 -19 -168 8 -228 75 -47 54 -69 111 -81 206 -6 54
-9 1343 -7 3703 l3 3620 23 56 c34 85 73 133 133 163 68 34 135 35 204 2z
m-1120 -1765 c62 -28 101 -67 132 -129 l28 -57 0 -1940 c0 -1571 -2 -1949 -13
-1985 -34 -117 -132 -190 -251 -190 -108 1 -190 53 -235 150 l-21 45 -3 1935
c-2 1377 0 1950 8 1986 19 88 81 162 158 190 54 19 150 17 197 -5z m2218 -1
c73 -27 130 -79 164 -148 l28 -57 0 -1935 0 -1935 -21 -46 c-31 -67 -78 -114
-146 -149 -149 -74 -327 -15 -406 135 l-27 50 0 1945 c0 1831 1 1947 17 1982
69 145 240 214 391 158z m2100 0 c73 -27 130 -79 164 -148 l28 -57 0 -1935 0
-1935 -21 -46 c-31 -67 -78 -114 -146 -149 -149 -74 -327 -15 -406 135 l-27
50 0 1945 c0 1831 1 1947 17 1982 69 145 240 214 391 158z m2213 -4 c27 -13
67 -43 87 -67 72 -83 67 67 67 -2069 0 -2147 5 -1987 -70 -2073 -55 -63 -110
-87 -193 -87 -112 0 -191 53 -241 160 l-21 45 0 1955 0 1955 21 45 c30 65 68
105 126 134 69 35 152 35 224 2z m1119 -955 c62 -28 101 -67 132 -129 l28 -57
0 -975 0 -975 -23 -49 c-53 -116 -127 -166 -241 -166 -108 1 -190 53 -235 150
-21 44 -21 56 -24 1005 -2 672 0 975 8 1011 19 88 81 162 158 190 54 19 150
17 197 -5z m-4346 -17 c51 -21 106 -78 133 -138 l23 -51 0 -965 c0 -1088 4
-1027 -76 -1110 -54 -56 -109 -80 -184 -80 -114 0 -218 76 -250 184 -22 72
-22 1928 -1 1999 45 150 206 223 355 161z m2175 -17 c69 -37 127 -104 145
-168 9 -33 11 -279 9 -999 l-3 -955 -22 -40 c-52 -96 -146 -156 -258 -163 -64
-4 -80 -1 -131 22 -68 31 -126 83 -157 141 l-22 40 0 980 0 980 22 41 c24 45
85 104 133 129 83 43 193 40 284 -8z m3153 -399 c24 -11 61 -40 83 -65 70 -80
70 -79 70 -683 0 -617 1 -610 -79 -690 -134 -134 -341 -93 -423 85 -23 50 -23
52 -26 559 -2 330 1 533 8 580 28 189 203 291 367 214z m-9600 1 c23 -11 61
-41 83 -66 70 -80 70 -79 70 -683 0 -598 0 -602 -66 -678 -46 -54 -102 -83
-176 -89 -107 -10 -212 54 -259 160 l-24 52 -3 509 c-2 330 1 533 8 580 22
145 121 236 259 236 45 0 78 -6 108 -21z"/>
</g>
</svg>
