<svg xmlns="http://www.w3.org/2000/svg"  viewBox="36 36 56 56" width="64px" height="64px">
<path fill="#0047FF" d="M64 84.5c-1.7 0-3-1.3-3-3v-30c0-1.7 1.3-3 3-3s3 1.3 3 3v30C67 83.2 65.7 84.5 64 84.5zM74 84.5c-1.7 0-3-1.3-3-3v-15c0-1.7 1.3-3 3-3s3 1.3 3 3v15C77 83.2 75.7 84.5 74 84.5zM84 84.5c-1.7 0-3-1.3-3-3v-20c0-1.7 1.3-3 3-3s3 1.3 3 3v20C87 83.2 85.7 84.5 84 84.5zM54 84.5c-1.7 0-3-1.3-3-3v-20c0-1.7 1.3-3 3-3s3 1.3 3 3v20C57 83.2 55.7 84.5 54 84.5zM44 84.5c-1.7 0-3-1.3-3-3v-9c0-1.7 1.3-3 3-3s3 1.3 3 3v9C47 83.2 45.7 84.5 44 84.5z"/>
</svg>
