<?xml version="1.0" encoding="UTF-8"?>
<svg xmlns="http://www.w3.org/2000/svg" xmlns:xlink="http://www.w3.org/1999/xlink" width="100pt" height="100pt" viewBox="0 0 100 100" version="1.1">
<g id="surface1734207">
<path style=" stroke:none;fill-rule:nonzero;fill:rgb(100%,100%,100%);fill-opacity:1;" d="M 6 18 C 5.277344 17.988281 4.609375 18.367188 4.246094 18.992188 C 3.878906 19.613281 3.878906 20.386719 4.246094 21.007812 C 4.609375 21.632812 5.277344 22.011719 6 22 L 94 22 C 94.722656 22.011719 95.390625 21.632812 95.753906 21.007812 C 96.121094 20.386719 96.121094 19.613281 95.753906 18.992188 C 95.390625 18.367188 94.722656 17.988281 94 18 Z M 6 48 C 5.277344 47.988281 4.609375 48.367188 4.246094 48.992188 C 3.878906 49.613281 3.878906 50.386719 4.246094 51.007812 C 4.609375 51.632812 5.277344 52.011719 6 52 L 94 52 C 94.722656 52.011719 95.390625 51.632812 95.753906 51.007812 C 96.121094 50.386719 96.121094 49.613281 95.753906 48.992188 C 95.390625 48.367188 94.722656 47.988281 94 48 Z M 6 78 C 5.277344 77.988281 4.609375 78.367188 4.246094 78.992188 C 3.878906 79.613281 3.878906 80.386719 4.246094 81.007812 C 4.609375 81.632812 5.277344 82.011719 6 82 L 94 82 C 94.722656 82.011719 95.390625 81.632812 95.753906 81.007812 C 96.121094 80.386719 96.121094 79.613281 95.753906 78.992188 C 95.390625 78.367188 94.722656 77.988281 94 78 Z M 6 78 "/>
</g>
</svg>
