<?xml version="1.0" encoding="UTF-8"?>
<svg xmlns="http://www.w3.org/2000/svg" xmlns:xlink="http://www.w3.org/1999/xlink" width="100pt" height="100pt" viewBox="0 0 100 100" version="1.1">
<g id="surface22248274">
<path style=" stroke:none;fill-rule:nonzero;fill:rgb(99.215686%,99.215686%,99.215686%);fill-opacity:1;" d="M 95.015625 24.882812 C 94.921875 24.75 94.820312 24.617188 94.703125 24.5 C 94.601562 24.390625 94.5 24.28125 94.382812 24.1875 C 94.109375 23.945312 93.820312 23.726562 93.484375 23.5625 L 69.554688 11.4375 L 68.132812 10.71875 L 68.125 10.71875 C 67.679688 10.492188 67.203125 10.320312 66.71875 10.203125 C 66.1875 10.070312 65.640625 10 65.101562 10 C 62.703125 10 60.453125 11.257812 59.21875 13.273438 L 55.6875 19.09375 L 45.15625 36.421875 L 39.476562 25.3125 C 39.039062 24.59375 38.429688 24.03125 37.703125 23.664062 L 13.679688 11.507812 C 13.679688 11.5 13.671875 11.5 13.664062 11.492188 L 12.90625 11.117188 C 11.90625 10.609375 10.875 10.351562 9.84375 10.351562 C 6.515625 10.351562 4 13.046875 4 16.625 L 4 70.734375 C 4 73.6875 5.898438 76.789062 8.523438 78.117188 L 30.320312 89.148438 C 31.429688 89.710938 32.5625 90 33.695312 90 C 37.351562 90 40 87.125 40 83.15625 L 40 65.695312 L 84 88 L 84 87.976562 L 85.539062 88.757812 C 86.882812 89.4375 88.226562 89.78125 89.539062 89.78125 C 93.28125 89.78125 96 86.992188 96 83.15625 L 96 27.671875 C 96 26.625 95.625 25.671875 95.015625 24.882812 Z M 36 83.15625 C 36 84.9375 35.046875 86 33.695312 86 C 33.21875 86 32.6875 85.867188 32.125 85.585938 L 10.328125 74.546875 C 9.046875 73.898438 8 72.179688 8 70.734375 L 8 16.625 C 8 15.195312 8.757812 14.351562 9.84375 14.351562 C 10.226562 14.351562 10.65625 14.453125 11.101562 14.679688 L 11.867188 15.070312 L 11.875 15.070312 L 35.898438 27.234375 C 35.9375 27.257812 35.96875 27.296875 36 27.328125 Z M 61.171875 17.765625 L 62.640625 15.351562 C 63.164062 14.492188 64.125 14 65.101562 14 C 65.328125 14 65.5625 14.03125 65.789062 14.09375 C 65.960938 14.132812 66.140625 14.195312 66.328125 14.289062 L 91.664062 27.117188 C 91.671875 27.117188 91.671875 27.125 91.671875 27.125 L 91.695312 27.132812 C 91.710938 27.140625 91.710938 27.164062 91.726562 27.171875 C 91.851562 27.273438 91.90625 27.445312 91.820312 27.585938 L 66.585938 69.117188 L 64.007812 73.351562 L 47.289062 40.609375 Z M 40 61.210938 L 40 35.125 L 57.960938 70.3125 L 41.804688 62.132812 Z M 92 83.15625 C 92 84.828125 91.007812 85.78125 89.546875 85.78125 C 88.890625 85.78125 88.140625 85.59375 87.351562 85.195312 L 83.734375 83.359375 L 67.578125 75.179688 L 92 34.992188 Z M 92 83.15625 "/>
</g>
</svg>
