<?xml version="1.0" encoding="UTF-8"?>
<svg xmlns="http://www.w3.org/2000/svg" xmlns:xlink="http://www.w3.org/1999/xlink" width="250pt" height="250pt" viewBox="0 0 250 250" version="1.1">
<g id="surface22248355">
<path style=" stroke:none;fill-rule:nonzero;fill:rgb(99.215686%,99.215686%,99.215686%);fill-opacity:1;" d="M 237.539062 62.207031 C 237.304688 61.875 237.050781 61.542969 236.757812 61.25 C 236.503906 60.976562 236.25 60.703125 235.957031 60.46875 C 235.273438 59.863281 234.550781 59.316406 233.710938 58.90625 L 173.886719 28.59375 L 170.332031 26.796875 L 170.3125 26.796875 C 169.199219 26.230469 168.007812 25.800781 166.796875 25.507812 C 165.46875 25.175781 164.101562 25 162.753906 25 C 156.757812 25 151.132812 28.144531 148.046875 33.183594 L 139.21875 47.734375 L 112.890625 91.054688 L 98.691406 63.28125 C 97.597656 61.484375 96.074219 60.078125 94.257812 59.160156 L 34.199219 28.769531 C 34.199219 28.75 34.179688 28.75 34.160156 28.730469 L 32.265625 27.792969 C 29.765625 26.523438 27.1875 25.878906 24.609375 25.878906 C 16.289062 25.878906 10 32.617188 10 41.5625 L 10 176.835938 C 10 184.21875 14.746094 191.972656 21.308594 195.292969 L 75.800781 222.871094 C 78.574219 224.277344 81.40625 225 84.238281 225 C 93.378906 225 100 217.8125 100 207.890625 L 100 164.238281 L 210 220 L 210 219.941406 L 213.847656 221.894531 C 217.207031 223.59375 220.566406 224.453125 223.847656 224.453125 C 233.203125 224.453125 240 217.480469 240 207.890625 L 240 69.179688 C 240 66.5625 239.0625 64.179688 237.539062 62.207031 Z M 90 207.890625 C 90 212.34375 87.617188 215 84.238281 215 C 83.046875 215 81.71875 214.667969 80.3125 213.964844 L 25.820312 186.367188 C 22.617188 184.746094 20 180.449219 20 176.835938 L 20 41.5625 C 20 37.988281 21.894531 35.878906 24.609375 35.878906 C 25.566406 35.878906 26.640625 36.132812 27.753906 36.699219 L 29.667969 37.675781 L 29.6875 37.675781 L 89.746094 68.085938 C 89.84375 68.144531 89.921875 68.242188 90 68.320312 Z M 152.929688 44.414062 L 156.601562 38.378906 C 157.910156 36.230469 160.3125 35 162.753906 35 C 163.320312 35 163.90625 35.078125 164.472656 35.234375 C 164.902344 35.332031 165.351562 35.488281 165.820312 35.722656 L 229.160156 67.792969 C 229.179688 67.792969 229.179688 67.8125 229.179688 67.8125 L 229.238281 67.832031 C 229.277344 67.851562 229.277344 67.910156 229.316406 67.929688 C 229.628906 68.183594 229.765625 68.613281 229.550781 68.964844 L 166.464844 172.792969 L 160.019531 183.378906 L 118.222656 101.523438 Z M 100 153.027344 L 100 87.8125 L 144.902344 175.78125 L 104.511719 155.332031 Z M 230 207.890625 C 230 212.070312 227.519531 214.453125 223.867188 214.453125 C 222.226562 214.453125 220.351562 213.984375 218.378906 212.988281 L 209.335938 208.398438 L 168.945312 187.949219 L 230 87.480469 Z M 230 207.890625 "/>
</g>
</svg>
