<?xml version="1.0" encoding="UTF-8"?>
<svg xmlns="http://www.w3.org/2000/svg" xmlns:xlink="http://www.w3.org/1999/xlink" width="144pt" height="144pt" viewBox="0 0 144 144" version="1.1">
<g id="surface53299762">
<path style=" stroke:none;fill-rule:nonzero;fill:rgb(97.647059%,53.333336%,60.392159%);fill-opacity:1;" d="M 96.488281 19.105469 C 94.570312 18.148438 93 19.117188 93 21.265625 L 93 106.613281 L 128.023438 124.125 C 131.878906 126.050781 135 124.699219 135 121.109375 L 135 38.921875 C 135 38.578125 134.804688 38.261719 134.5 38.109375 Z M 96.488281 19.105469 "/>
<path style=" stroke:none;fill-rule:nonzero;fill:rgb(98.039216%,22.352941%,33.725491%);fill-opacity:1;" d="M 51 85.609375 L 90.957031 20.683594 C 92.082031 18.859375 94.570312 18.148438 96.488281 19.105469 L 134.539062 38.132812 C 134.785156 38.257812 134.875 38.566406 134.730469 38.800781 L 93 106.609375 Z M 51 85.609375 "/>
<path style=" stroke:none;fill-rule:nonzero;fill:rgb(55.29412%,0%,11.764706%);fill-opacity:1;" d="M 14.8125 20.269531 C 11.617188 18.667969 10.53125 19.855469 12.40625 22.898438 L 51 85.609375 L 93 106.609375 L 51.089844 38.507812 C 51.03125 38.410156 50.945312 38.335938 50.84375 38.28125 Z M 14.8125 20.269531 "/>
<path style=" stroke:none;fill-rule:nonzero;fill:rgb(100%,0%,21.960784%);fill-opacity:1;" d="M 51 121.109375 C 51 124.6875 48.382812 126.304688 45.1875 124.703125 L 12.488281 108.355469 C 10.570312 107.398438 9 104.855469 9 102.710938 L 9 22.5625 C 9 19.699219 11.09375 18.40625 13.652344 19.6875 L 50.773438 38.25 C 50.914062 38.320312 51 38.460938 51 38.613281 Z M 51 121.109375 "/>
</g>
</svg>
