<?xml version="1.0" encoding="UTF-8"?>
<svg xmlns="http://www.w3.org/2000/svg" xmlns:xlink="http://www.w3.org/1999/xlink" width="50pt" height="50pt" viewBox="0 0 50 50" version="1.1">
<g id="surface521008">
<path style=" stroke:none;fill-rule:nonzero;fill:rgb(100%,100%,100%);fill-opacity:1;" d="M 24.984375 6.988281 C 24.433594 6.996094 23.992188 7.449219 24 8 L 24 11 C 23.996094 11.359375 24.183594 11.695312 24.496094 11.878906 C 24.808594 12.058594 25.191406 12.058594 25.503906 11.878906 C 25.816406 11.695312 26.003906 11.359375 26 11 L 26 8 C 26.003906 7.730469 25.898438 7.46875 25.707031 7.277344 C 25.515625 7.085938 25.253906 6.980469 24.984375 6.988281 Z M 16.503906 10.503906 C 16.097656 10.507812 15.730469 10.753906 15.578125 11.128906 C 15.425781 11.507812 15.515625 11.9375 15.808594 12.222656 L 17.929688 14.34375 C 18.179688 14.605469 18.554688 14.710938 18.902344 14.617188 C 19.253906 14.527344 19.527344 14.253906 19.617188 13.902344 C 19.710938 13.554688 19.605469 13.179688 19.34375 12.929688 L 17.222656 10.808594 C 17.035156 10.613281 16.773438 10.503906 16.503906 10.507812 Z M 33.464844 10.503906 C 33.203125 10.511719 32.957031 10.621094 32.777344 10.808594 L 30.65625 12.929688 C 30.394531 13.179688 30.289062 13.554688 30.382812 13.902344 C 30.472656 14.253906 30.746094 14.527344 31.097656 14.617188 C 31.445312 14.710938 31.820312 14.605469 32.070312 14.34375 L 34.191406 12.222656 C 34.488281 11.933594 34.574219 11.496094 34.414062 11.117188 C 34.253906 10.734375 33.878906 10.492188 33.464844 10.503906 Z M 25 14 C 21.699219 14 19 16.699219 19 20 C 19 23.300781 21.699219 26 25 26 C 28.300781 26 31 23.300781 31 20 C 31 16.699219 28.300781 14 25 14 Z M 25 16 C 27.222656 16 29 17.777344 29 20 C 29 22.222656 27.222656 24 25 24 C 22.777344 24 21 22.222656 21 20 C 21 17.777344 22.777344 16 25 16 Z M 13 19 C 12.640625 18.996094 12.304688 19.183594 12.121094 19.496094 C 11.941406 19.808594 11.941406 20.191406 12.121094 20.503906 C 12.304688 20.816406 12.640625 21.003906 13 21 L 16 21 C 16.359375 21.003906 16.695312 20.816406 16.878906 20.503906 C 17.058594 20.191406 17.058594 19.808594 16.878906 19.496094 C 16.695312 19.183594 16.359375 18.996094 16 19 Z M 34 19 C 33.640625 18.996094 33.304688 19.183594 33.121094 19.496094 C 32.941406 19.808594 32.941406 20.191406 33.121094 20.503906 C 33.304688 20.816406 33.640625 21.003906 34 21 L 37 21 C 37.359375 21.003906 37.695312 20.816406 37.878906 20.503906 C 38.058594 20.191406 38.058594 19.808594 37.878906 19.496094 C 37.695312 19.183594 37.359375 18.996094 37 19 Z M 9 23 C 6.25 23 4 25.25 4 28 C 4 30.75 6.25 33 9 33 C 11.75 33 14 30.75 14 28 C 14 25.25 11.75 23 9 23 Z M 41 23 C 38.25 23 36 25.25 36 28 C 36 30.75 38.25 33 41 33 C 43.75 33 46 30.75 46 28 C 46 25.25 43.75 23 41 23 Z M 9 25 C 10.667969 25 12 26.332031 12 28 C 12 29.667969 10.667969 31 9 31 C 7.332031 31 6 29.667969 6 28 C 6 26.332031 7.332031 25 9 25 Z M 41 25 C 42.667969 25 44 26.332031 44 28 C 44 29.667969 42.667969 31 41 31 C 39.332031 31 38 29.667969 38 28 C 38 26.332031 39.332031 25 41 25 Z M 21 28 C 17.703125 28 15 30.703125 15 34 L 15 35.972656 C 14.1875 35.371094 13.191406 35 12.113281 35 L 5.886719 35 C 3.203125 35 1 37.203125 1 39.886719 L 1 42 L 3 42 L 3 39.886719 C 3 38.296875 4.296875 37 5.886719 37 L 12.113281 37 C 13.703125 37 15 38.296875 15 39.886719 L 15 42 L 17 42 L 17 34 C 17 31.796875 18.796875 30 21 30 L 29 30 C 31.203125 30 33 31.796875 33 34 L 33 42 L 35 42 L 35 39.886719 C 35 38.296875 36.296875 37 37.886719 37 L 44.113281 37 C 45.703125 37 47 38.296875 47 39.886719 L 47 42 L 49 42 L 49 39.886719 C 49 37.203125 46.796875 35 44.113281 35 L 37.886719 35 C 36.808594 35 35.8125 35.371094 35 35.972656 L 35 34 C 35 30.703125 32.296875 28 29 28 Z M 21 28 "/>
</g>
</svg>
