<?xml version="1.0" encoding="UTF-8" standalone="yes"?>
<svg xmlns="http://www.w3.org/2000/svg" viewBox="0 0 50 50" width="50" height="50" fill="#ffffff">
  <path d="M 45.5 2 C 43.578812 2 42 3.5788117 42 5.5 L 42 13.464844 L 36.697266 17 L 27.537109 17 L 21.980469 13.347656 L 17.146484 6.2265625 C 16.066991 4.6365349 13.87292 4.2181542 12.283203 5.2988281 C 10.693989 6.3787146 10.277811 8.5713475 11.357422 10.160156 L 16.769531 18.121094 C 17.174951 18.718177 17.706989 19.219389 18.326172 19.587891 L 24.884766 23.5 L 24.111328 27.519531 A 1.0001 1.0001 0 0 0 24.039062 27.691406 A 1.0001 1.0001 0 0 0 24.039062 27.693359 C 22.320887 32.140391 15.66885 32.138286 13.957031 27.685547 A 1.0001 1.0001 0 0 0 13.121094 26.994141 A 1.0001 1.0001 0 0 0 13.048828 26.988281 A 1.0001 1.0001 0 0 0 13.046875 26.988281 A 1.0001 1.0001 0 0 0 12.972656 26.988281 A 1.0001 1.0001 0 0 0 12.949219 26.988281 A 1.0001 1.0001 0 0 0 12.921875 26.990234 A 1.0001 1.0001 0 0 0 12.884766 26.994141 A 1.0001 1.0001 0 0 0 12.84375 27 A 1.0001 1.0001 0 0 0 12.039062 27.691406 A 1.0001 1.0001 0 0 0 12.039062 27.693359 C 10.315517 32.154298 3.6212909 32.143473 1.9355469 27.648438 A 1.0001 1.0001 0 1 0 0.064453125 28.351562 C 2.1404708 33.887265 9.794215 34.398079 13 29.974609 C 15.847766 33.904069 22.152234 33.904069 25 29.974609 C 27.847766 33.904069 34.152234 33.904069 37 29.974609 C 40.205785 34.398079 47.859529 33.887265 49.935547 28.351562 A 1.0001 1.0001 0 1 0 48.064453 27.648438 C 46.413932 32.04955 39.990397 32.1241 38.103516 27.939453 L 39.828125 23.623047 L 47.550781 17.615234 C 48.465417 16.905062 49 15.809795 49 14.652344 L 49 5.5 C 49 3.5788117 47.421188 2 45.5 2 z M 45.5 4 C 46.340812 4 47 4.6591883 47 5.5 L 47 14.652344 C 47 15.194893 46.751583 15.705281 46.324219 16.037109 A 1.0001 1.0001 0 0 0 46.322266 16.037109 L 38.496094 22.126953 L 38.488281 22.132812 A 1.0001 1.0001 0 0 0 38.240234 22.345703 A 1.0001 1.0001 0 0 0 38.193359 22.404297 A 1.0001 1.0001 0 0 0 38.144531 22.476562 A 1.0001 1.0001 0 0 0 38.025391 22.746094 L 36.132812 27.480469 A 1.0001 1.0001 0 0 0 36.039062 27.691406 A 1.0001 1.0001 0 0 0 36.039062 27.693359 C 34.351134 32.062106 27.926058 32.113029 26.076172 27.892578 L 26.953125 23.345703 A 1.0001 1.0001 0 0 0 26.929688 22.611328 A 1.0001 1.0001 0 0 0 26.925781 22.601562 A 1.0001 1.0001 0 0 0 26.900391 22.546875 A 1.0001 1.0001 0 0 0 26.898438 22.544922 A 1.0001 1.0001 0 0 0 26.369141 22.054688 A 1.0001 1.0001 0 0 0 26.365234 22.052734 L 19.349609 17.869141 A 1.0001 1.0001 0 0 0 19.347656 17.869141 C 18.979251 17.649887 18.664307 17.352437 18.423828 16.998047 A 1.0001 1.0001 0 0 0 18.423828 16.996094 L 13.011719 9.0351562 C 12.53933 8.3399653 12.713418 7.4232854 13.408203 6.9511719 C 14.104486 6.4778458 15.01968 6.653637 15.492188 7.3496094 L 20.447266 14.648438 A 1.0001 1.0001 0 0 0 20.8125 14.972656 A 1.0001 1.0001 0 0 0 20.818359 14.976562 L 26.701172 18.84375 A 1.0001 1.0001 0 0 0 27.427734 19 L 36.871094 19 A 1.0001 1.0001 0 0 0 37.279297 18.962891 A 1.0001 1.0001 0 0 0 37.296875 18.958984 A 1.0001 1.0001 0 0 0 37.314453 18.953125 A 1.0001 1.0001 0 0 0 37.322266 18.949219 A 1.0001 1.0001 0 0 0 37.664062 18.759766 L 43.425781 14.917969 A 1.0001 1.0001 0 0 0 43.839844 14.554688 A 1.0001 1.0001 0 0 0 43.890625 14.46875 A 1.0001 1.0001 0 0 0 43.898438 14.455078 A 1.0001 1.0001 0 0 0 43.908203 14.431641 A 1.0001 1.0001 0 0 0 44 13.847656 L 44 5.5 C 44 4.6591883 44.659188 4 45.5 4 z M 32.5 5 C 30.750001 5 29.310226 5.6922556 28.376953 6.7421875 C 27.443681 7.7921194 27 9.1527779 27 10.5 C 27 11.847222 27.443681 13.207881 28.376953 14.257812 C 29.310226 15.307745 30.750001 16 32.5 16 C 34.249999 16 35.689774 15.307744 36.623047 14.257812 C 37.556319 13.207882 38 11.847222 38 10.5 C 38 9.1527779 37.556319 7.7921194 36.623047 6.7421875 C 35.689774 5.6922556 34.249999 5 32.5 5 z M 32.5 7 C 33.749999 7 34.560226 7.4327444 35.126953 8.0703125 C 35.69368 8.7078806 36 9.5972221 36 10.5 C 36 11.402778 35.69368 12.292119 35.126953 12.929688 C 34.560226 13.567255 33.749999 14 32.5 14 C 31.250001 14 30.439774 13.567256 29.873047 12.929688 C 29.30632 12.292118 29 11.402778 29 10.5 C 29 9.5972221 29.30632 8.7078806 29.873047 8.0703125 C 30.439774 7.4327444 31.250001 7 32.5 7 z M 35.490234 35.490234 A 1.0001 1.0001 0 0 0 34.792969 37.207031 L 37.585938 40 L 12.3125 40 A 1.0001 1.0001 0 1 0 12.3125 42 L 37.585938 42 L 34.792969 44.792969 A 1.0001 1.0001 0 1 0 36.207031 46.207031 L 40.707031 41.707031 A 1.0001 1.0001 0 0 0 40.707031 40.292969 L 36.207031 35.792969 A 1.0001 1.0001 0 0 0 35.490234 35.490234 z"/>
</svg>