<?xml version="1.0" encoding="UTF-8"?>
<svg xmlns="http://www.w3.org/2000/svg" xmlns:xlink="http://www.w3.org/1999/xlink" width="50pt" height="50pt" viewBox="0 0 50 50" version="1.1">
<g id="surface23163652">
<path style=" stroke:none;fill-rule:nonzero;fill:rgb(100%,100%,100%);fill-opacity:1;" d="M 21.75 0 C 21.304688 0.0820312 20.972656 0.457031 20.9375 0.90625 C 20.316406 7.855469 16.300781 12.441406 12.21875 17.1875 C 8.136719 21.933594 4 26.894531 4 34.34375 C 4 39.449219 6.285156 43.40625 9.28125 46.03125 C 12.277344 48.65625 15.945312 50 19 50 C 19.359375 50.003906 19.695312 49.816406 19.878906 49.503906 C 20.058594 49.191406 20.058594 48.808594 19.878906 48.496094 C 19.695312 48.183594 19.359375 47.996094 19 48 C 16.554688 48 13.222656 46.835938 10.59375 44.53125 C 7.964844 42.226562 6 38.859375 6 34.34375 C 6 27.628906 9.683594 23.199219 13.75 18.46875 C 17.503906 14.101562 21.453125 9.410156 22.59375 2.71875 C 37.738281 13.339844 44 24.136719 44 32.25 C 44 39.960938 39.292969 46.167969 34.625 48.0625 C 34.105469 48.269531 33.855469 48.855469 34.0625 49.375 C 34.269531 49.894531 34.855469 50.144531 35.375 49.9375 C 40.988281 47.660156 46 40.761719 46 32.25 C 46 22.882812 38.90625 11.308594 22.5 0.1875 C 22.308594 0.0507812 22.078125 -0.015625 21.84375 0 C 21.8125 0 21.78125 0 21.75 0 Z M 25.59375 15.40625 C 25.320312 15.4375 25.074219 15.578125 24.90625 15.796875 C 24.742188 16.015625 24.675781 16.292969 24.71875 16.5625 C 25.328125 20.085938 25.476562 22.984375 25.28125 25.15625 C 25.085938 27.328125 24.542969 28.773438 23.96875 29.4375 C 23.394531 30.101562 22.957031 30.183594 22.09375 29.8125 C 21.230469 29.441406 20.011719 28.367188 18.78125 26.46875 C 18.605469 26.199219 18.308594 26.03125 17.984375 26.019531 C 17.664062 26.007812 17.355469 26.152344 17.15625 26.40625 C 13.425781 31.4375 13.59375 35.460938 14.90625 38.0625 C 16.21875 40.664062 18.53125 41.875 18.53125 41.875 C 18.847656 42.097656 19.261719 42.117188 19.601562 41.929688 C 19.9375 41.738281 20.132812 41.371094 20.105469 40.984375 C 20.078125 40.597656 19.828125 40.265625 19.46875 40.125 C 19.46875 40.125 17.6875 39.167969 16.6875 37.1875 C 15.78125 35.386719 15.542969 32.6875 18.0625 28.75 C 19.117188 30.113281 20.179688 31.167969 21.3125 31.65625 C 22.777344 32.285156 24.441406 31.941406 25.46875 30.75 C 26.496094 29.558594 27.0625 27.722656 27.28125 25.3125 C 27.433594 23.628906 27.3125 21.542969 27.0625 19.25 C 29.769531 21.925781 31.964844 24.808594 32.84375 27.9375 C 33.945312 31.859375 33.394531 36.015625 30.1875 40.40625 C 29.859375 40.855469 29.957031 41.484375 30.40625 41.8125 C 30.855469 42.140625 31.484375 42.042969 31.8125 41.59375 C 35.316406 36.796875 36.039062 31.871094 34.78125 27.40625 C 33.523438 22.941406 30.367188 18.941406 26.34375 15.625 C 26.132812 15.453125 25.863281 15.375 25.59375 15.40625 Z M 25.59375 15.40625 "/>
</g>
</svg>
