<?xml version="1.0" encoding="UTF-8"?>
<svg xmlns="http://www.w3.org/2000/svg" xmlns:xlink="http://www.w3.org/1999/xlink" width="50pt" height="50pt" viewBox="0 0 50 50" version="1.1">
<g id="surface23169667">
<path style=" stroke:none;fill-rule:nonzero;fill:rgb(100%,100%,100%);fill-opacity:1;" d="M 12 2 C 8.699219 2 6 4.699219 6 8 L 6 42.417969 C 6 45.59375 8.832031 48 12 48 L 44 48 L 44 46 L 12 46 C 9.839844 46 8 44.378906 8 42.417969 C 8 40.457031 9.800781 39 12 39 L 44 39 L 44 2 Z M 12 4 L 42 4 L 42 37 L 12 37 C 10.507812 37 9.09375 37.539062 8 38.417969 L 8 8 C 8 5.78125 9.78125 4 12 4 Z M 21.316406 13 C 17.835938 13 15 15.820312 15 19.238281 C 15 22.242188 17.480469 24.929688 19.785156 27.039062 C 22.085938 29.144531 24.371094 30.628906 24.371094 30.628906 L 24.910156 30.980469 L 25.453125 30.636719 C 25.453125 30.636719 27.785156 29.152344 30.125 27.042969 C 32.46875 24.933594 35 22.253906 35 19.238281 C 35 15.820312 32.164062 13 28.679688 13 C 27.300781 13 26.058594 13.542969 25 14.308594 C 23.941406 13.542969 22.699219 13 21.316406 13 Z M 21.316406 15 C 22.433594 15 23.511719 15.46875 24.324219 16.210938 L 25 16.832031 L 25.675781 16.210938 C 26.488281 15.46875 27.566406 15 28.683594 15 C 31.089844 15 33 16.925781 33 19.238281 C 33 20.984375 30.988281 23.578125 28.792969 25.558594 C 26.863281 27.292969 25.371094 28.238281 24.925781 28.53125 C 24.480469 28.234375 23.023438 27.292969 21.136719 25.5625 C 18.976562 23.585938 17 20.996094 17 19.238281 C 17 16.925781 18.910156 15 21.316406 15 Z M 21.316406 15 "/>
</g>
</svg>
