<?xml version="1.0" encoding="UTF-8"?>
<svg xmlns="http://www.w3.org/2000/svg" xmlns:xlink="http://www.w3.org/1999/xlink" width="50pt" height="50pt" viewBox="0 0 50 50" version="1.1">
<g id="surface22565832">
<path style=" stroke:none;fill-rule:nonzero;fill:rgb(100%,100%,100%);fill-opacity:1;" d="M 13 2 C 10.800781 2 9 3.800781 9 6 L 9 44.3125 L 9.03125 44.3125 C 9.195312 46.363281 10.910156 48 13 48 L 42 48 L 42 46 L 13 46 C 11.882812 46 11 45.117188 11 44 C 11 42.882812 11.882812 42 13 42 L 42 42 L 42 40 L 13 40 C 11.882812 40 11 39.117188 11 38 C 11 36.882812 11.882812 36 13 36 L 42 36 L 42 2 Z M 13 4 L 40 4 L 40 34 L 13 34 C 12.257812 34 11.597656 34.261719 11 34.621094 L 11 6 C 11 4.882812 11.882812 4 13 4 Z M 16 7 C 14.90625 7 14 7.90625 14 9 L 14 12 C 14 13.09375 14.90625 14 16 14 L 35 14 C 36.09375 14 37 13.09375 37 12 L 37 9 C 37 7.90625 36.09375 7 35 7 Z M 16 9 L 35 9 L 35 12 L 16 12 Z M 16 9 "/>
</g>
</svg>
