<?xml version="1.0" encoding="UTF-8"?>
<svg xmlns="http://www.w3.org/2000/svg" xmlns:xlink="http://www.w3.org/1999/xlink" width="50pt" height="50pt" viewBox="0 0 50 50" version="1.1">
<g id="surface23153029">
<path style=" stroke:none;fill-rule:nonzero;fill:rgb(100%,100%,100%);fill-opacity:1;" d="M 6 3 C 4.355469 3 3 4.355469 3 6 L 3 38.832031 C 2.980469 38.941406 2.980469 39.050781 3 39.15625 L 3 44 C 3 45.644531 4.355469 47 6 47 L 44 47 C 45.644531 47 47 45.644531 47 44 L 47 39.167969 C 47.019531 39.058594 47.019531 38.949219 47 38.84375 L 47 6 C 47 4.355469 45.644531 3 44 3 Z M 6 5 L 44 5 C 44.554688 5 45 5.445312 45 6 L 45 38 L 41.1875 38 C 41.175781 37.992188 41.164062 37.988281 41.113281 37.921875 C 40.972656 37.730469 40.777344 37.351562 40.605469 36.867188 C 40.261719 35.894531 40 34.484375 40 33 C 39.992188 32.453125 39.546875 32.015625 39 32.015625 C 38.453125 32.015625 38.007812 32.453125 38 33 C 38 34.441406 37.757812 35.863281 37.425781 36.84375 C 37.261719 37.335938 37.066406 37.714844 36.925781 37.90625 C 36.871094 37.984375 36.855469 37.992188 36.84375 38 L 33.5625 38 C 33.46875 37.679688 33.359375 37.1875 33.25 36.542969 C 33.023438 35.175781 32.808594 33.242188 32.621094 31.125 C 32.25 26.890625 32 21.894531 32 19 C 31.992188 18.453125 31.546875 18.015625 31 18.015625 C 30.453125 18.015625 30.007812 18.453125 30 19 C 30 21.84375 29.75 26.84375 29.378906 31.089844 C 29.191406 33.210938 28.976562 35.152344 28.75 36.527344 C 28.640625 37.179688 28.53125 37.675781 28.4375 38 L 23.671875 38 C 23.660156 37.9375 23.652344 37.925781 23.640625 37.855469 C 23.53125 37.289062 23.417969 36.414062 23.300781 35.332031 C 23.074219 33.175781 22.851562 30.183594 22.660156 26.941406 C 22.273438 20.457031 22 12.953125 22 9 C 21.996094 8.730469 21.882812 8.472656 21.6875 8.289062 C 21.488281 8.101562 21.226562 8.003906 20.957031 8.015625 C 20.425781 8.039062 20.007812 8.46875 20 9 C 20 12.902344 19.726562 20.40625 19.339844 26.902344 C 19.148438 30.148438 18.925781 33.152344 18.699219 35.320312 C 18.582031 36.402344 18.46875 37.285156 18.359375 37.851562 C 18.347656 37.925781 18.339844 37.9375 18.328125 38 L 15.472656 38 C 15.40625 37.824219 15.324219 37.609375 15.234375 37.265625 C 15.015625 36.429688 14.800781 35.214844 14.613281 33.910156 C 14.246094 31.304688 14 28.28125 14 27 C 13.992188 26.453125 13.546875 26.015625 13 26.015625 C 12.453125 26.015625 12.007812 26.453125 12 27 C 12 28.28125 11.753906 31.304688 11.386719 33.910156 C 11.199219 35.214844 10.984375 36.429688 10.765625 37.265625 C 10.675781 37.609375 10.59375 37.824219 10.527344 38 L 5 38 L 5 6 C 5 5.445312 5.445312 5 6 5 Z M 21 31.441406 C 21.105469 32.820312 21.199219 34.46875 21.3125 35.542969 C 21.429688 36.648438 21.546875 37.554688 21.671875 38.222656 C 21.738281 38.558594 21.796875 38.828125 21.886719 39.082031 C 21.929688 39.210938 21.976562 39.332031 22.089844 39.5 C 22.199219 39.664062 22.460938 40 23 40 L 29 40 C 29.328125 40 29.59375 39.847656 29.75 39.714844 C 29.902344 39.582031 29.980469 39.460938 30.046875 39.347656 C 30.183594 39.121094 30.253906 38.914062 30.328125 38.671875 C 30.476562 38.191406 30.601562 37.585938 30.71875 36.855469 C 30.824219 36.226562 30.902344 35.25 31 34.464844 C 31.09375 35.257812 31.175781 36.238281 31.28125 36.871094 C 31.398438 37.601562 31.523438 38.199219 31.671875 38.675781 C 31.746094 38.917969 31.820312 39.125 31.953125 39.351562 C 32.019531 39.464844 32.101562 39.585938 32.253906 39.71875 C 32.40625 39.847656 32.675781 40 33 40 L 37 40 C 37.734375 40 38.210938 39.539062 38.542969 39.089844 C 38.738281 38.820312 38.863281 38.453125 39.011719 38.121094 C 39.164062 38.464844 39.300781 38.832031 39.5 39.105469 C 39.820312 39.539062 40.257812 40 41 40 L 45 40 L 45 44 C 45 44.554688 44.554688 45 44 45 L 6 45 C 5.445312 45 5 44.554688 5 44 L 5 40 L 11 40 C 11.445312 40 11.757812 39.753906 11.925781 39.570312 C 12.09375 39.386719 12.1875 39.214844 12.277344 39.03125 C 12.449219 38.667969 12.578125 38.257812 12.703125 37.769531 C 12.816406 37.332031 12.898438 36.699219 13 36.164062 C 13.101562 36.699219 13.183594 37.332031 13.296875 37.769531 C 13.421875 38.257812 13.550781 38.667969 13.722656 39.03125 C 13.8125 39.214844 13.90625 39.386719 14.074219 39.570312 C 14.242188 39.753906 14.554688 40 15 40 L 19 40 C 19.539062 40 19.800781 39.660156 19.910156 39.496094 C 20.023438 39.332031 20.070312 39.210938 20.113281 39.082031 C 20.203125 38.828125 20.265625 38.554688 20.328125 38.21875 C 20.453125 37.546875 20.570312 36.640625 20.6875 35.527344 C 20.800781 34.460938 20.894531 32.816406 21 31.441406 Z M 21 31.441406 "/>
</g>
</svg>
