<?xml version="1.0" encoding="UTF-8"?>
<svg xmlns="http://www.w3.org/2000/svg" xmlns:xlink="http://www.w3.org/1999/xlink" width="50pt" height="50pt" viewBox="0 0 50 50" version="1.1">
<g id="surface23126079">
<path style=" stroke:none;fill-rule:nonzero;fill:rgb(100%,100%,100%);fill-opacity:1;" d="M 25 1 C 24.585938 1 24.21875 1.253906 24.066406 1.636719 L 17.902344 17.535156 L 0.949219 18.402344 C 0.535156 18.421875 0.179688 18.695312 0.0507812 19.085938 C -0.078125 19.480469 0.046875 19.914062 0.367188 20.175781 L 13.566406 30.964844 L 9.230469 47.34375 C 9.125 47.742188 9.277344 48.164062 9.609375 48.410156 C 9.945312 48.652344 10.394531 48.664062 10.742188 48.441406 L 25 39.289062 L 39.261719 48.441406 C 39.605469 48.664062 40.054688 48.652344 40.390625 48.410156 C 40.722656 48.164062 40.875 47.742188 40.769531 47.34375 L 36.433594 30.964844 L 49.632812 20.175781 C 49.953125 19.914062 50.078125 19.480469 49.949219 19.085938 C 49.820312 18.695312 49.464844 18.421875 49.050781 18.402344 L 32.097656 17.535156 L 25.933594 1.636719 C 25.78125 1.253906 25.414062 1 25 1 Z M 25 4.761719 L 30.464844 18.863281 C 30.609375 19.230469 30.957031 19.480469 31.347656 19.496094 L 46.359375 20.265625 L 34.667969 29.824219 C 34.363281 30.074219 34.234375 30.476562 34.332031 30.855469 L 38.175781 45.367188 L 25.539062 37.257812 C 25.210938 37.046875 24.789062 37.046875 24.457031 37.257812 L 11.824219 45.367188 L 15.664062 30.855469 C 15.765625 30.476562 15.636719 30.074219 15.332031 29.824219 L 3.640625 20.265625 L 18.648438 19.496094 C 19.042969 19.480469 19.390625 19.230469 19.53125 18.863281 Z M 25 4.761719 "/>
</g>
</svg>
