<?xml version="1.0" encoding="UTF-8" standalone="yes"?>
<svg xmlns="http://www.w3.org/2000/svg" viewBox="0 0 50 50" width="50" height="50" fill="#ffffff">
  <path d="M 8.75 9.6875 C 8.453125 9.734375 8.191406 9.914063 8.039063 10.171875 C 7.886719 10.433594 7.863281 10.75 7.96875 11.03125 L 10.65625 18.71875 C 10.738281 19.09375 11.03125 19.390625 11.410156 19.476563 C 11.785156 19.5625 12.175781 19.425781 12.414063 19.125 C 12.65625 18.820313 12.699219 18.410156 12.53125 18.0625 L 9.84375 10.375 C 9.695313 9.910156 9.234375 9.617188 8.75 9.6875 Z M 40.9375 9.6875 C 40.570313 9.753906 40.265625 10.019531 40.15625 10.375 L 37.46875 18.0625 C 37.300781 18.410156 37.34375 18.820313 37.585938 19.125 C 37.824219 19.425781 38.214844 19.5625 38.589844 19.476563 C 38.96875 19.390625 39.261719 19.09375 39.34375 18.71875 L 42.03125 11.03125 C 42.160156 10.699219 42.097656 10.320313 41.871094 10.042969 C 41.648438 9.765625 41.289063 9.628906 40.9375 9.6875 Z M 12.125 10.09375 C 11.824219 10.144531 11.5625 10.332031 11.417969 10.601563 C 11.273438 10.867188 11.257813 11.1875 11.375 11.46875 L 15.78125 22.96875 C 15.910156 23.292969 16.199219 23.527344 16.546875 23.585938 C 16.890625 23.640625 17.242188 23.515625 17.46875 23.25 L 20.375 19.75 C 20.523438 19.570313 20.765625 19.535156 20.9375 19.65625 C 21.101563 19.863281 21.140625 20.132813 21.0625 20.25 C 21.050781 20.261719 21.042969 20.269531 21.03125 20.28125 L 18.375 24.71875 L 18.34375 24.78125 L 18.21875 24.84375 L 17.21875 25.75 C 17.207031 25.761719 17.199219 25.769531 17.1875 25.78125 C 16.453125 26.515625 16.171875 27.554688 16.3125 28.53125 C 16.3125 28.550781 16.3125 28.574219 16.3125 28.59375 L 17.28125 33.375 C 16.195313 33.746094 15.007813 33.90625 14.1875 33.90625 C 13.574219 33.90625 12.757813 33.796875 11.9375 33.59375 L 11.59375 30.09375 C 11.59375 30.082031 11.59375 30.074219 11.59375 30.0625 C 11.457031 28.957031 10.761719 28.054688 9.84375 27.5 C 9.835938 27.496094 9.851563 27.472656 9.84375 27.46875 C 9.097656 26.972656 8.570313 26.339844 8.25 25.5625 L 8.21875 25.53125 L 4.9375 16.375 C 4.789063 15.910156 4.328125 15.617188 3.84375 15.6875 C 3.546875 15.734375 3.285156 15.914063 3.132813 16.171875 C 2.980469 16.433594 2.957031 16.75 3.0625 17.03125 L 6.34375 26.25 C 6.355469 26.261719 6.363281 26.269531 6.375 26.28125 C 6.855469 27.484375 7.707031 28.429688 8.75 29.125 C 8.769531 29.136719 8.792969 29.148438 8.8125 29.15625 C 9.246094 29.402344 9.527344 29.828125 9.59375 30.28125 L 9.59375 30.3125 L 9.84375 32.78125 C 9.671875 32.675781 9.496094 32.558594 9.34375 32.4375 C 9.164063 32.277344 8.929688 32.1875 8.6875 32.1875 C 8.457031 32.195313 8.234375 32.285156 8.0625 32.4375 C 6.765625 33.492188 4.507813 33.90625 3.1875 33.90625 C 2.582031 33.90625 2.039063 33.8125 1.40625 33.8125 C 1.046875 33.808594 0.710938 33.996094 0.527344 34.308594 C 0.347656 34.621094 0.347656 35.003906 0.527344 35.316406 C 0.710938 35.628906 1.046875 35.816406 1.40625 35.8125 C 1.773438 35.8125 2.390625 35.90625 3.1875 35.90625 C 4.691406 35.90625 6.875 35.457031 8.6875 34.28125 C 9.191406 34.609375 9.714844 34.875 10.25 35.09375 C 10.472656 35.335938 10.800781 35.453125 11.125 35.40625 C 12.234375 35.75 13.320313 35.90625 14.1875 35.90625 C 15.375 35.90625 16.984375 35.601563 18.5 34.90625 C 18.53125 34.898438 18.5625 34.886719 18.59375 34.875 C 18.652344 34.847656 18.722656 34.839844 18.78125 34.8125 C 18.859375 34.78125 18.933594 34.738281 19 34.6875 C 19.019531 34.675781 19.042969 34.667969 19.0625 34.65625 C 19.085938 34.636719 19.105469 34.617188 19.125 34.59375 C 19.3125 34.488281 19.503906 34.398438 19.6875 34.28125 C 21.503906 35.472656 23.675781 35.90625 25.1875 35.90625 C 26.691406 35.90625 28.875 35.457031 30.6875 34.28125 C 30.695313 34.285156 30.710938 34.277344 30.71875 34.28125 C 30.730469 34.289063 30.738281 34.304688 30.75 34.3125 C 30.929688 34.625 31.265625 34.816406 31.625 34.8125 C 33.210938 35.597656 34.929688 35.90625 36.1875 35.90625 C 36.972656 35.90625 37.933594 35.78125 38.9375 35.5 C 38.949219 35.5 38.957031 35.5 38.96875 35.5 C 39.269531 35.53125 39.566406 35.429688 39.78125 35.21875 C 40.433594 34.976563 41.078125 34.675781 41.6875 34.28125 C 43.503906 35.472656 45.675781 35.90625 47.1875 35.90625 C 47.984375 35.90625 48.726563 35.789063 49.375 35.53125 C 49.894531 35.324219 50.144531 34.738281 49.9375 34.21875 C 49.730469 33.699219 49.144531 33.449219 48.625 33.65625 C 48.273438 33.796875 47.792969 33.90625 47.1875 33.90625 C 45.867188 33.90625 43.640625 33.492188 42.34375 32.4375 C 41.972656 32.128906 41.433594 32.128906 41.0625 32.4375 C 40.816406 32.636719 40.523438 32.8125 40.21875 32.96875 L 40.40625 30.3125 L 40.40625 30.28125 C 40.472656 29.828125 40.753906 29.402344 41.1875 29.15625 C 41.207031 29.148438 41.230469 29.136719 41.25 29.125 C 42.292969 28.429688 43.144531 27.484375 43.625 26.28125 C 43.636719 26.269531 43.644531 26.261719 43.65625 26.25 L 46.9375 17.03125 C 47.066406 16.699219 47.003906 16.320313 46.777344 16.042969 C 46.554688 15.765625 46.195313 15.628906 45.84375 15.6875 C 45.476563 15.753906 45.171875 16.019531 45.0625 16.375 L 41.78125 25.53125 L 41.75 25.5625 C 41.429688 26.339844 40.902344 26.972656 40.15625 27.46875 L 40.15625 27.5 C 39.238281 28.054688 38.542969 28.957031 38.40625 30.0625 C 38.40625 30.082031 38.40625 30.105469 38.40625 30.125 L 38.15625 33.65625 C 37.429688 33.8125 36.730469 33.90625 36.1875 33.90625 C 35.269531 33.90625 33.925781 33.722656 32.75 33.25 L 33.6875 28.59375 C 33.6875 28.574219 33.6875 28.550781 33.6875 28.53125 C 33.828125 27.554688 33.546875 26.515625 32.8125 25.78125 C 32.800781 25.769531 32.792969 25.761719 32.78125 25.75 L 31.78125 24.84375 L 31.65625 24.78125 L 31.625 24.71875 L 28.96875 20.28125 C 28.957031 20.269531 28.949219 20.261719 28.9375 20.25 C 28.859375 20.132813 28.898438 19.863281 29.0625 19.65625 C 29.234375 19.535156 29.476563 19.570313 29.625 19.75 L 32.53125 23.25 C 32.757813 23.515625 33.109375 23.640625 33.453125 23.585938 C 33.800781 23.527344 34.089844 23.292969 34.21875 22.96875 L 38.625 11.46875 C 38.761719 11.136719 38.710938 10.757813 38.492188 10.472656 C 38.273438 10.1875 37.917969 10.042969 37.5625 10.09375 C 37.203125 10.152344 36.902344 10.40625 36.78125 10.75 L 32.96875 20.65625 L 31.15625 18.46875 C 30.3125 17.457031 28.777344 17.269531 27.75 18.125 C 27.726563 18.144531 27.707031 18.164063 27.6875 18.1875 C 26.910156 18.964844 26.59375 20.25 27.28125 21.3125 L 27.28125 21.34375 L 29.9375 25.8125 C 29.980469 25.882813 30.035156 25.945313 30.09375 26 L 30.40625 26.3125 C 30.417969 26.324219 30.425781 26.332031 30.4375 26.34375 L 31.40625 27.21875 C 31.65625 27.46875 31.757813 27.792969 31.71875 28.1875 C 31.714844 28.210938 31.722656 28.226563 31.71875 28.25 L 30.90625 32.21875 C 30.605469 32.160156 30.296875 32.238281 30.0625 32.4375 C 28.765625 33.492188 26.507813 33.90625 25.1875 33.90625 C 23.867188 33.90625 21.640625 33.492188 20.34375 32.4375 C 20 32.140625 19.5 32.117188 19.125 32.375 L 18.28125 28.25 L 18.28125 28.21875 C 18.230469 27.8125 18.335938 27.476563 18.59375 27.21875 L 19.5625 26.34375 C 19.574219 26.332031 19.582031 26.324219 19.59375 26.3125 L 19.90625 26 C 19.964844 25.945313 20.019531 25.882813 20.0625 25.8125 L 22.71875 21.34375 L 22.71875 21.3125 C 23.40625 20.25 23.089844 18.964844 22.3125 18.1875 C 22.292969 18.164063 22.273438 18.144531 22.25 18.125 C 21.222656 17.269531 19.6875 17.457031 18.84375 18.46875 L 17.03125 20.65625 L 13.21875 10.75 C 13.058594 10.296875 12.601563 10.019531 12.125 10.09375 Z M 6 11.96875 C 5.96875 11.976563 5.9375 11.988281 5.90625 12 C 5.605469 12.050781 5.34375 12.238281 5.199219 12.507813 C 5.054688 12.773438 5.039063 13.09375 5.15625 13.375 L 7.78125 20.0625 C 7.867188 20.445313 8.171875 20.742188 8.558594 20.820313 C 8.941406 20.898438 9.335938 20.742188 9.566406 20.425781 C 9.796875 20.109375 9.820313 19.683594 9.625 19.34375 L 7.03125 12.625 C 6.886719 12.230469 6.511719 11.96875 6.09375 11.96875 C 6.0625 11.96875 6.03125 11.96875 6 11.96875 Z M 43.75 12 C 43.398438 12.054688 43.097656 12.292969 42.96875 12.625 L 40.375 19.34375 C 40.179688 19.683594 40.203125 20.109375 40.433594 20.425781 C 40.664063 20.742188 41.058594 20.898438 41.441406 20.820313 C 41.828125 20.742188 42.132813 20.445313 42.21875 20.0625 L 44.84375 13.375 C 44.988281 13.039063 44.933594 12.648438 44.707031 12.363281 C 44.476563 12.074219 44.109375 11.9375 43.75 12 Z M 8.59375 36.1875 C 8.394531 36.214844 8.210938 36.304688 8.0625 36.4375 C 6.765625 37.492188 4.507813 37.90625 3.1875 37.90625 C 2.582031 37.90625 2.039063 37.8125 1.40625 37.8125 C 1.046875 37.808594 0.710938 37.996094 0.527344 38.308594 C 0.347656 38.621094 0.347656 39.003906 0.527344 39.316406 C 0.710938 39.628906 1.046875 39.816406 1.40625 39.8125 C 1.773438 39.8125 2.390625 39.90625 3.1875 39.90625 C 4.691406 39.90625 6.875 39.457031 8.6875 38.28125 C 10.503906 39.472656 12.675781 39.90625 14.1875 39.90625 C 15.691406 39.90625 17.875 39.457031 19.6875 38.28125 C 21.503906 39.472656 23.675781 39.90625 25.1875 39.90625 C 26.691406 39.90625 28.875 39.457031 30.6875 38.28125 C 32.503906 39.472656 34.675781 39.90625 36.1875 39.90625 C 37.691406 39.90625 39.875 39.457031 41.6875 38.28125 C 43.503906 39.472656 45.675781 39.90625 47.1875 39.90625 C 47.984375 39.90625 48.726563 39.789063 49.375 39.53125 C 49.894531 39.324219 50.144531 38.738281 49.9375 38.21875 C 49.730469 37.699219 49.144531 37.449219 48.625 37.65625 C 48.273438 37.796875 47.792969 37.90625 47.1875 37.90625 C 45.867188 37.90625 43.640625 37.492188 42.34375 36.4375 C 41.972656 36.128906 41.433594 36.128906 41.0625 36.4375 C 39.765625 37.492188 37.507813 37.90625 36.1875 37.90625 C 34.867188 37.90625 32.640625 37.492188 31.34375 36.4375 C 30.972656 36.128906 30.433594 36.128906 30.0625 36.4375 C 28.765625 37.492188 26.507813 37.90625 25.1875 37.90625 C 23.867188 37.90625 21.640625 37.492188 20.34375 36.4375 C 19.972656 36.128906 19.433594 36.128906 19.0625 36.4375 C 17.765625 37.492188 15.507813 37.90625 14.1875 37.90625 C 12.867188 37.90625 10.640625 37.492188 9.34375 36.4375 C 9.164063 36.277344 8.929688 36.1875 8.6875 36.1875 C 8.65625 36.1875 8.625 36.1875 8.59375 36.1875 Z"/>
</svg>