<?xml version="1.0" encoding="UTF-8"?>
<svg xmlns="http://www.w3.org/2000/svg" xmlns:xlink="http://www.w3.org/1999/xlink" width="50pt" height="50pt" viewBox="0 0 50 50" version="1.1">
<g id="surface520654">
<path style=" stroke:none;fill-rule:nonzero;fill:rgb(100%,100%,100%);fill-opacity:1;" d="M 13 5 C 12.640625 4.996094 12.304688 5.183594 12.121094 5.496094 C 11.941406 5.808594 11.941406 6.191406 12.121094 6.503906 C 12.304688 6.816406 12.640625 7.003906 13 7 L 37 7 C 37.359375 7.003906 37.695312 6.816406 37.878906 6.503906 C 38.058594 6.191406 38.058594 5.808594 37.878906 5.496094 C 37.695312 5.183594 37.359375 4.996094 37 5 Z M 8 9 C 7.640625 8.996094 7.304688 9.183594 7.121094 9.496094 C 6.941406 9.808594 6.941406 10.191406 7.121094 10.503906 C 7.304688 10.816406 7.640625 11.003906 8 11 L 42 11 C 42.359375 11.003906 42.695312 10.816406 42.878906 10.503906 C 43.058594 10.191406 43.058594 9.808594 42.878906 9.496094 C 42.695312 9.183594 42.359375 8.996094 42 9 Z M 3 13 C 2.449219 13 2 13.449219 2 14 L 2 44 C 2 44.550781 2.449219 45 3 45 L 47 45 C 47.550781 45 48 44.550781 48 44 L 48 14 C 48 13.449219 47.550781 13 47 13 Z M 4 15 L 46 15 L 46 43 L 4 43 Z M 25 20 C 24.195312 20 24 20.46875 24 21 L 24 30 C 24 31.117188 24 32 22 32 C 19.144531 32 18 33.21875 18 35 C 18 36.199219 18.246094 38 22 38 C 25.753906 38 26 35.351562 26 34 L 26 26.035156 C 26 25.34375 26.058594 25 26.460938 25 C 27.75 25 27.75 26 31 26 C 31 26 32 26 32 25 L 32 22 C 32 21.25 31.640625 21 31 21 C 27.75 21 28 20 25 20 Z M 25 20 "/>
</g>
</svg>
