<?xml version="1.0" encoding="UTF-8" standalone="yes"?>
<svg xmlns="http://www.w3.org/2000/svg" viewBox="0 0 50 50" width="50" height="50" fill="#ffffff">
  <path d="M 14.8125 3 C 14.335938 3.089844 13.992188 3.511719 14 4 L 14 14 L 4 14 C 3.449219 14 3 14.449219 3 15 L 3 19 C 3 19.550781 3.449219 20 4 20 L 14 20 L 14 30 L 4 30 C 3.449219 30 3 30.449219 3 31 L 3 35 C 3 35.550781 3.449219 36 4 36 L 14 36 L 14 46 C 14 46.550781 14.449219 47 15 47 L 19 47 C 19.550781 47 20 46.550781 20 46 L 20 36 L 30 36 L 30 46 C 30 46.550781 30.449219 47 31 47 L 35 47 C 35.550781 47 36 46.550781 36 46 L 36 36 L 46 36 C 46.550781 36 47 35.550781 47 35 L 47 31 C 47 30.449219 46.550781 30 46 30 L 36 30 L 36 20 L 46 20 C 46.550781 20 47 19.550781 47 19 L 47 15 C 47 14.449219 46.550781 14 46 14 L 36 14 L 36 4 C 36 3.449219 35.550781 3 35 3 L 31 3 C 30.449219 3 30 3.449219 30 4 L 30 14 L 20 14 L 20 4 C 20 3.449219 19.550781 3 19 3 L 15 3 C 14.96875 3 14.9375 3 14.90625 3 C 14.875 3 14.84375 3 14.8125 3 Z M 16 5 L 18 5 L 18 15 C 18 15.550781 18.449219 16 19 16 L 31 16 C 31.550781 16 32 15.550781 32 15 L 32 5 L 34 5 L 34 15 C 34 15.550781 34.449219 16 35 16 L 45 16 L 45 18 L 35 18 C 34.449219 18 34 18.449219 34 19 L 34 31 C 34 31.550781 34.449219 32 35 32 L 45 32 L 45 34 L 35 34 C 34.449219 34 34 34.449219 34 35 L 34 45 L 32 45 L 32 35 C 32 34.449219 31.550781 34 31 34 L 19 34 C 18.449219 34 18 34.449219 18 35 L 18 45 L 16 45 L 16 35 C 16 34.449219 15.550781 34 15 34 L 5 34 L 5 32 L 15 32 C 15.550781 32 16 31.550781 16 31 L 16 19 C 16 18.449219 15.550781 18 15 18 L 5 18 L 5 16 L 15 16 C 15.550781 16 16 15.550781 16 15 Z M 18.8125 18 C 18.335938 18.089844 17.992188 18.511719 18 19 L 18 31 C 18 31.550781 18.449219 32 19 32 L 31 32 C 31.550781 32 32 31.550781 32 31 L 32 19 C 32 18.449219 31.550781 18 31 18 L 19 18 C 18.96875 18 18.9375 18 18.90625 18 C 18.875 18 18.84375 18 18.8125 18 Z M 20 20 L 30 20 L 30 30 L 20 30 Z"/>
</svg>