<?xml version="1.0" encoding="UTF-8"?>
<svg xmlns="http://www.w3.org/2000/svg" xmlns:xlink="http://www.w3.org/1999/xlink" width="90pt" height="90pt" viewBox="0 0 90 90" version="1.1">
<g id="surface5315958">
<path style=" stroke:none;fill-rule:nonzero;fill:rgb(100%,100%,100%);fill-opacity:1;" d="M 63 12 C 61.34375 12 60 13.34375 60 15 L 60 75 C 60 76.65625 61.34375 78 63 78 L 75 78 C 76.65625 78 78 76.65625 78 75 L 78 15 C 78 13.34375 76.65625 12 75 12 Z M 66 18 L 72 18 L 72 72 L 66 72 Z M 39 30 C 37.34375 30 36 31.34375 36 33 L 36 75 C 36 76.65625 37.34375 78 39 78 L 51 78 C 52.65625 78 54 76.65625 54 75 L 54 33 C 54 31.34375 52.65625 30 51 30 Z M 42 36 L 48 36 L 48 72 L 42 72 Z M 15 48 C 13.34375 48 12 49.34375 12 51 L 12 75 C 12 76.65625 13.34375 78 15 78 L 27 78 C 28.65625 78 30 76.65625 30 75 L 30 51 C 30 49.34375 28.65625 48 27 48 Z M 18 54 L 24 54 L 24 72 L 18 72 Z M 18 54 "/>
</g>
</svg>
